<svg xmlns="http://www.w3.org/2000/svg" xmlns:xlink="http://www.w3.org/1999/xlink" width="1080" zoomAndPan="magnify" viewBox="0 0 810 809.999993" height="1080" preserveAspectRatio="xMidYMid meet" version="1.0"><defs><g/><clipPath id="8f78980124"><path d="M 300.550781 17.675781 L 500.800781 17.675781 L 500.800781 217.925781 L 300.550781 217.925781 Z M 300.550781 17.675781 " clip-rule="nonzero"/></clipPath><clipPath id="63d27ad748"><path d="M 26.773438 306.410156 L 227.023438 306.410156 L 227.023438 506.660156 L 26.773438 506.660156 Z M 26.773438 306.410156 " clip-rule="nonzero"/></clipPath><clipPath id="dc45046e8f"><path d="M 300.550781 591.84375 L 500.800781 591.84375 L 500.800781 792.09375 L 300.550781 792.09375 Z M 300.550781 591.84375 " clip-rule="nonzero"/></clipPath><clipPath id="1c6e970202"><path d="M 582.746094 306.410156 L 782.996094 306.410156 L 782.996094 506.660156 L 582.746094 506.660156 Z M 582.746094 306.410156 " clip-rule="nonzero"/></clipPath><clipPath id="ca7596e575"><path d="M 106.957031 106.957031 L 706.957031 106.957031 L 706.957031 706.957031 L 106.957031 706.957031 Z M 106.957031 106.957031 " clip-rule="nonzero"/></clipPath><clipPath id="53c5a4da72"><path d="M 128 81 L 149 81 L 149 107.761719 L 128 107.761719 Z M 128 81 " clip-rule="nonzero"/></clipPath><clipPath id="cb6c0244f5"><rect x="0" width="244" y="0" height="108"/></clipPath><clipPath id="f8b60d0880"><rect x="0" width="160" y="0" height="57"/></clipPath><clipPath id="e29b075fdb"><rect x="0" width="134" y="0" height="58"/></clipPath><clipPath id="634ff0faa8"><rect x="0" width="168" y="0" height="28"/></clipPath><clipPath id="550dace65b"><rect x="0" width="102" y="0" height="58"/></clipPath></defs><g clip-path="url(#8f78980124)"><path fill="#000000" d="M 400.675781 17.675781 C 345.359375 17.675781 300.550781 62.484375 300.550781 117.800781 C 300.550781 173.121094 345.359375 217.925781 400.675781 217.925781 C 455.996094 217.925781 500.800781 173.121094 500.800781 117.800781 C 500.800781 62.484375 455.996094 17.675781 400.675781 17.675781 Z M 400.675781 17.675781 " fill-opacity="1" fill-rule="nonzero"/></g><g clip-path="url(#63d27ad748)"><path fill="#000000" d="M 126.898438 306.410156 C 71.582031 306.410156 26.773438 351.214844 26.773438 406.535156 C 26.773438 461.851562 71.582031 506.660156 126.898438 506.660156 C 182.21875 506.660156 227.023438 461.851562 227.023438 406.535156 C 227.023438 351.214844 182.21875 306.410156 126.898438 306.410156 Z M 126.898438 306.410156 " fill-opacity="1" fill-rule="nonzero"/></g><g clip-path="url(#dc45046e8f)"><path fill="#000000" d="M 400.675781 591.84375 C 345.359375 591.84375 300.550781 636.648438 300.550781 691.96875 C 300.550781 747.289062 345.359375 792.09375 400.675781 792.09375 C 455.996094 792.09375 500.800781 747.289062 500.800781 691.96875 C 500.800781 636.648438 455.996094 591.84375 400.675781 591.84375 Z M 400.675781 591.84375 " fill-opacity="1" fill-rule="nonzero"/></g><g clip-path="url(#1c6e970202)"><path fill="#000000" d="M 682.871094 306.410156 C 627.550781 306.410156 582.746094 351.214844 582.746094 406.535156 C 582.746094 461.851562 627.550781 506.660156 682.871094 506.660156 C 738.191406 506.660156 782.996094 461.851562 782.996094 406.535156 C 782.996094 351.214844 738.191406 306.410156 682.871094 306.410156 Z M 682.871094 306.410156 " fill-opacity="1" fill-rule="nonzero"/></g><g clip-path="url(#ca7596e575)"><path stroke-linecap="butt" transform="matrix(1.187648, 0, 0, 1.187648, 106.958429, 107.077215)" fill="none" stroke-linejoin="miter" d="M 502.192669 252.49883 C 502.192669 256.583846 502.090708 260.665573 501.890075 264.744011 C 501.689442 268.81916 501.390137 272.89102 500.988872 276.956301 C 500.590895 281.018294 500.090958 285.070419 499.489059 289.109388 C 498.89045 293.148358 498.193168 297.170881 497.397215 301.173671 C 496.597973 305.179749 495.703348 309.162805 494.71334 313.122836 C 493.720043 317.082868 492.631363 321.019876 491.444011 324.927283 C 490.259949 328.834689 488.977214 332.709205 487.602386 336.55412 C 486.224269 340.399034 484.757347 344.207769 483.191753 347.980324 C 481.629448 351.752879 479.975049 355.482676 478.228557 359.176294 C 476.482065 362.866622 474.646768 366.510904 472.719377 370.112428 C 470.795275 373.713951 468.782369 377.266139 466.680657 380.768991 C 464.582235 384.271843 462.398298 387.718781 460.128844 391.113094 C 457.859391 394.510696 455.507711 397.845805 453.073805 401.12829 C 450.639898 404.407486 448.127054 407.624189 445.535273 410.781689 C 442.943491 413.935901 440.276061 417.02762 437.532983 420.053558 C 434.789904 423.079495 431.974467 426.036363 429.086669 428.92416 C 426.198872 431.811957 423.242005 434.624106 420.212778 437.367184 C 417.18684 440.110263 414.095121 442.774403 410.937621 445.366185 C 407.78012 447.957966 404.560128 450.467521 401.280932 452.901428 C 397.998448 455.332045 394.660049 457.683725 391.262447 459.953179 C 387.868134 462.219343 384.417907 464.403281 380.915055 466.501703 C 377.408914 468.603414 373.856726 470.613031 370.255203 472.540422 C 366.653679 474.464524 363.006108 476.299821 359.312491 478.046313 C 355.618873 479.789516 351.885787 481.443915 348.113232 483.009509 C 344.337388 484.571814 340.528653 486.038736 336.683738 487.413564 C 332.835535 488.791681 328.95773 490.071127 325.050323 491.255189 C 321.139628 492.442541 317.205908 493.531221 313.242588 494.521229 C 309.279267 495.514526 305.296212 496.409151 301.290133 497.205104 C 297.284055 498.001057 293.261531 498.701628 289.219273 499.300237 C 285.180304 499.898847 281.124889 500.398784 277.059608 500.80005 C 272.994326 501.198026 268.922466 501.50062 264.844028 501.697964 C 260.762301 501.898597 256.680574 502.000558 252.595558 502.000558 C 248.510542 502.000558 244.428815 501.898597 240.350378 501.697964 C 236.268651 501.50062 232.196791 501.198026 228.131509 500.80005 C 224.066227 500.398784 220.014102 499.898847 215.971844 499.300237 C 211.932875 498.701628 207.907062 498.001057 203.900983 497.205104 C 199.894905 496.409151 195.91185 495.514526 191.948529 494.521229 C 187.985208 493.531221 184.051489 492.442541 180.140794 491.255189 C 176.233387 490.071127 172.355582 488.791681 168.510667 487.413564 C 164.662464 486.038736 160.853729 484.571814 157.081174 483.009509 C 153.30533 481.443915 149.572244 479.789516 145.878626 478.046313 C 142.188298 476.299821 138.540727 474.464524 134.935914 472.540422 C 131.33439 470.613031 127.782202 468.603414 124.279351 466.501703 C 120.77321 464.403281 117.322983 462.219343 113.92867 459.953179 C 110.531068 457.683725 107.192669 455.332045 103.910185 452.901428 C 100.630989 450.467521 97.410996 447.957966 94.253496 445.366185 C 91.095996 442.774403 88.004277 440.110263 84.978339 437.367184 C 81.952401 434.624106 78.992245 431.811957 76.104447 428.92416 C 73.21665 426.036363 70.401213 423.079495 67.658134 420.053558 C 64.915056 417.02762 62.247626 413.935901 59.655844 410.781689 C 57.064063 407.624189 54.551219 404.407486 52.117312 401.12829 C 49.686695 397.845805 47.335015 394.510696 45.065562 391.113094 C 42.796108 387.718781 40.608881 384.271843 38.510459 380.768991 C 36.408748 377.266139 34.399131 373.713951 32.47174 370.112428 C 30.547638 366.510904 28.709052 362.866622 26.96256 359.176294 C 25.216067 355.482676 23.561669 351.752879 21.999364 347.980324 C 20.437059 344.207769 18.966848 340.399034 17.588731 336.55412 C 16.213903 332.709205 14.934457 328.834689 13.747105 324.927283 C 12.563043 321.019876 11.471074 317.082868 10.481066 313.122836 C 9.487769 309.162805 8.593144 305.179749 7.797191 301.173671 C 6.997949 297.170881 6.300667 293.148358 5.702058 289.109388 C 5.103448 285.070419 4.603511 281.018294 4.202245 276.956301 C 3.800979 272.89102 3.501675 268.81916 3.301042 264.744011 C 3.100409 260.665573 2.998448 256.583846 2.998448 252.49883 C 2.998448 248.417103 3.100409 244.335376 3.301042 240.256938 C 3.501675 236.178501 3.800979 232.10993 4.202245 228.044648 C 4.603511 223.982656 5.103448 219.93053 5.702058 215.891561 C 6.300667 211.852592 6.997949 207.830068 7.797191 203.82399 C 8.593144 199.8212 9.487769 195.838145 10.481066 191.874824 C 11.471074 187.914793 12.563043 183.981074 13.747105 180.073667 C 14.934457 176.16626 16.213903 172.291744 17.588731 168.44683 C 18.966848 164.601915 20.437059 160.793181 21.999364 157.020626 C 23.561669 153.248071 25.216067 149.514984 26.96256 145.824656 C 28.709052 142.134327 30.547638 138.486757 32.47174 134.885233 C 34.399131 131.286998 36.408748 127.73481 38.510459 124.231958 C 40.608881 120.729106 42.796108 117.27888 45.065562 113.884567 C 47.335015 110.490254 49.686695 107.151855 52.117312 103.872659 C 54.551219 100.593464 57.064063 97.37676 59.655844 94.21926 C 62.247626 91.06176 64.915056 87.970041 67.658134 84.947392 C 70.401213 81.921454 73.21665 78.964587 76.104447 76.07679 C 78.992245 73.188992 81.952401 70.373555 84.978339 67.633765 C 88.004277 64.890687 91.095996 62.223257 94.253496 59.634765 C 97.410996 57.042983 100.630989 54.533428 103.910185 52.099522 C 107.192669 49.668904 110.531068 47.317224 113.92867 45.047771 C 117.322983 42.778318 120.77321 40.59438 124.279351 38.495958 C 127.782202 36.397536 131.33439 34.384629 134.935914 32.460528 C 138.540727 30.536426 142.188298 28.701129 145.878626 26.954636 C 149.572244 25.208144 153.30533 23.553745 157.081174 21.991441 C 160.853729 20.429136 164.662464 18.958925 168.510667 17.584096 C 172.355582 16.209268 176.233387 14.929823 180.140794 13.742471 C 184.051489 12.558408 187.985208 11.469729 191.948529 10.476432 C 195.91185 9.486424 199.894905 8.591799 203.900983 7.792556 C 207.907062 6.996603 211.932875 6.299322 215.971844 5.700712 C 220.014102 5.102103 224.066227 4.602165 228.131509 4.2009 C 232.196791 3.799634 236.268651 3.500329 240.350378 3.299697 C 244.428815 3.099064 248.510542 3.000392 252.595558 3.000392 C 256.680574 3.000392 260.762301 3.099064 264.844028 3.299697 C 268.922466 3.500329 272.994326 3.799634 277.059608 4.2009 C 281.124889 4.602165 285.180304 5.102103 289.219273 5.700712 C 293.261531 6.299322 297.284055 6.996603 301.290133 7.792556 C 305.296212 8.591799 309.279267 9.486424 313.242588 10.476432 C 317.205908 11.469729 321.139628 12.558408 325.050323 13.742471 C 328.95773 14.929823 332.835535 16.209268 336.683738 17.584096 C 340.528653 18.958925 344.337388 20.429136 348.113232 21.991441 C 351.885787 23.553745 355.618873 25.208144 359.312491 26.954636 C 363.006108 28.701129 366.653679 30.536426 370.255203 32.460528 C 373.856726 34.384629 377.408914 36.397536 380.915055 38.495958 C 384.417907 40.59438 387.868134 42.778318 391.262447 45.047771 C 394.660049 47.317224 397.998448 49.668904 401.280932 52.099522 C 404.560128 54.533428 407.78012 57.042983 410.937621 59.634765 C 414.095121 62.223257 417.18684 64.890687 420.216067 67.633765 C 423.242005 70.373555 426.198872 73.188992 429.086669 76.07679 C 431.974467 78.964587 434.789904 81.921454 437.532983 84.947392 C 440.276061 87.970041 442.943491 91.06176 445.535273 94.21926 C 448.127054 97.37676 450.639898 100.593464 453.073805 103.872659 C 455.507711 107.151855 457.859391 110.490254 460.128844 113.884567 C 462.398298 117.27888 464.582235 120.729106 466.680657 124.231958 C 468.782369 127.73481 470.795275 131.286998 472.719377 134.885233 C 474.646768 138.486757 476.482065 142.134327 478.228557 145.824656 C 479.975049 149.514984 481.629448 153.248071 483.191753 157.020626 C 484.757347 160.793181 486.224269 164.601915 487.602386 168.44683 C 488.977214 172.291744 490.259949 176.16626 491.444011 180.073667 C 492.631363 183.981074 493.720043 187.914793 494.71334 191.874824 C 495.703348 195.838145 496.597973 199.8212 497.397215 203.82399 C 498.193168 207.830068 498.89045 211.852592 499.489059 215.891561 C 500.090958 219.93053 500.590895 223.982656 500.988872 228.044648 C 501.390137 232.10993 501.689442 236.178501 501.890075 240.256938 C 502.090708 244.335376 502.192669 248.417103 502.192669 252.49883 Z M 502.192669 252.49883 " stroke="#000000" stroke-width="6" stroke-opacity="1" stroke-miterlimit="10"/></g><g transform="matrix(1, 0, 0, 1, 283, 234)"><g clip-path="url(#cb6c0244f5)"><g fill="#000000" fill-opacity="1"><g transform="translate(31.165503, 27.352847)"><g><path d="M 14.453125 -15.75 L 14.453125 0 L 7.65625 0 L 7.65625 -15.75 L 0.703125 -15.75 L 0.703125 -21.171875 L 21.375 -21.171875 L 21.375 -15.75 Z M 14.453125 -15.75 "/></g></g></g><g fill="#000000" fill-opacity="1"><g transform="translate(51.535041, 27.352847)"><g><path d="M 10.25 -16.609375 C 13.21875 -16.609375 15.484375 -15.910156 17.046875 -14.515625 C 18.617188 -13.117188 19.40625 -10.988281 19.40625 -8.125 L 19.40625 -7.078125 L 7.234375 -7.078125 C 7.234375 -5.910156 7.492188 -5.023438 8.015625 -4.421875 C 8.535156 -3.828125 9.359375 -3.53125 10.484375 -3.53125 C 11.515625 -3.53125 12.269531 -3.742188 12.75 -4.171875 C 13.226562 -4.609375 13.46875 -5.1875 13.46875 -5.90625 L 19.40625 -5.90625 C 19.40625 -3.9375 18.65625 -2.394531 17.15625 -1.28125 C 15.664062 -0.175781 13.484375 0.375 10.609375 0.375 C 7.597656 0.375 5.257812 -0.328125 3.59375 -1.734375 C 1.9375 -3.140625 1.109375 -5.269531 1.109375 -8.125 C 1.109375 -10.914062 1.914062 -13.023438 3.53125 -14.453125 C 5.15625 -15.890625 7.394531 -16.609375 10.25 -16.609375 Z M 10.484375 -12.703125 C 8.554688 -12.703125 7.484375 -11.789062 7.265625 -9.96875 L 13.234375 -9.96875 C 13.234375 -10.8125 12.988281 -11.476562 12.5 -11.96875 C 12.019531 -12.457031 11.347656 -12.703125 10.484375 -12.703125 Z M 10.484375 -12.703125 "/></g></g></g><g fill="#000000" fill-opacity="1"><g transform="translate(72.058427, 27.352847)"><g><path d="M 23.40625 -16.609375 C 25.257812 -16.609375 26.644531 -16.078125 27.5625 -15.015625 C 28.488281 -13.960938 28.953125 -12.460938 28.953125 -10.515625 L 28.953125 0 L 22.828125 0 L 22.828125 -9.78125 C 22.828125 -10.476562 22.65625 -11.035156 22.3125 -11.453125 C 21.976562 -11.878906 21.503906 -12.09375 20.890625 -12.09375 C 20.171875 -12.09375 19.582031 -11.84375 19.125 -11.34375 C 18.675781 -10.851562 18.453125 -10.25 18.453125 -9.53125 L 18.453125 0 L 12.34375 0 L 12.34375 -9.78125 C 12.34375 -10.476562 12.171875 -11.035156 11.828125 -11.453125 C 11.492188 -11.878906 11.019531 -12.09375 10.40625 -12.09375 C 9.6875 -12.09375 9.097656 -11.84375 8.640625 -11.34375 C 8.191406 -10.851562 7.96875 -10.25 7.96875 -9.53125 L 7.96875 0 L 1.84375 0 L 1.84375 -16.25 L 6.859375 -16.25 L 7.265625 -13.8125 C 7.878906 -14.675781 8.691406 -15.359375 9.703125 -15.859375 C 10.722656 -16.359375 11.796875 -16.609375 12.921875 -16.609375 C 15.359375 -16.609375 17 -15.675781 17.84375 -13.8125 C 18.476562 -14.675781 19.289062 -15.359375 20.28125 -15.859375 C 21.28125 -16.359375 22.320312 -16.609375 23.40625 -16.609375 Z M 23.40625 -16.609375 "/></g></g><g transform="translate(102.82813, 27.352847)"><g><path d="M 12.546875 -16.609375 C 14.742188 -16.609375 16.4375 -15.890625 17.625 -14.453125 C 18.8125 -13.023438 19.40625 -10.90625 19.40625 -8.09375 C 19.40625 -5.300781 18.8125 -3.191406 17.625 -1.765625 C 16.4375 -0.335938 14.742188 0.375 12.546875 0.375 C 10.660156 0.375 9.144531 -0.242188 8 -1.484375 L 8 6.0625 L 1.875 6.0625 L 1.875 -16.25 L 6.859375 -16.25 L 7.390625 -13.9375 C 8.578125 -15.71875 10.296875 -16.609375 12.546875 -16.609375 Z M 10.640625 -12.09375 C 9.742188 -12.09375 9.066406 -11.773438 8.609375 -11.140625 C 8.160156 -10.503906 7.9375 -9.671875 7.9375 -8.640625 L 7.9375 -7.625 C 7.9375 -6.601562 8.160156 -5.769531 8.609375 -5.125 C 9.066406 -4.476562 9.742188 -4.15625 10.640625 -4.15625 C 12.410156 -4.15625 13.296875 -5.210938 13.296875 -7.328125 L 13.296875 -8.953125 C 13.296875 -11.046875 12.410156 -12.09375 10.640625 -12.09375 Z M 10.640625 -12.09375 "/></g></g></g><g fill="#000000" fill-opacity="1"><g transform="translate(123.351516, 27.352847)"><g><path d="M 10.25 -16.609375 C 13.09375 -16.609375 15.328125 -15.882812 16.953125 -14.4375 C 18.585938 -13 19.40625 -10.894531 19.40625 -8.125 C 19.40625 -5.351562 18.585938 -3.242188 16.953125 -1.796875 C 15.328125 -0.347656 13.09375 0.375 10.25 0.375 C 7.394531 0.375 5.15625 -0.34375 3.53125 -1.78125 C 1.914062 -3.21875 1.109375 -5.332031 1.109375 -8.125 C 1.109375 -10.914062 1.914062 -13.023438 3.53125 -14.453125 C 5.15625 -15.890625 7.394531 -16.609375 10.25 -16.609375 Z M 10.25 -12.453125 C 8.238281 -12.453125 7.234375 -11.296875 7.234375 -8.984375 L 7.234375 -7.234375 C 7.234375 -4.929688 8.238281 -3.78125 10.25 -3.78125 C 12.28125 -3.78125 13.296875 -4.929688 13.296875 -7.234375 L 13.296875 -8.984375 C 13.296875 -11.296875 12.28125 -12.453125 10.25 -12.453125 Z M 10.25 -12.453125 "/></g></g></g><g fill="#000000" fill-opacity="1"><g transform="translate(143.874902, 27.352847)"><g><path d="M 11.71875 -16.640625 C 12.1875 -16.640625 12.601562 -16.582031 12.96875 -16.46875 C 13.34375 -16.363281 13.53125 -16.300781 13.53125 -16.28125 L 13.53125 -11.140625 L 11.5625 -11.140625 C 10.289062 -11.140625 9.375 -10.8125 8.8125 -10.15625 C 8.25 -9.5 7.96875 -8.523438 7.96875 -7.234375 L 7.96875 0 L 1.84375 0 L 1.84375 -16.25 L 6.859375 -16.25 L 7.265625 -13.78125 C 7.628906 -14.726562 8.210938 -15.441406 9.015625 -15.921875 C 9.816406 -16.398438 10.71875 -16.640625 11.71875 -16.640625 Z M 11.71875 -16.640625 "/></g></g></g><g fill="#000000" fill-opacity="1"><g transform="translate(158.059731, 27.352847)"><g><path d="M 9.875 -16.609375 C 12.351562 -16.609375 14.375 -16.191406 15.9375 -15.359375 C 17.5 -14.535156 18.28125 -13.191406 18.28125 -11.328125 L 18.28125 -4.984375 C 18.28125 -4.640625 18.359375 -4.351562 18.515625 -4.125 C 18.679688 -3.894531 18.929688 -3.78125 19.265625 -3.78125 L 20.359375 -3.78125 L 20.359375 -0.25 C 20.304688 -0.207031 20.148438 -0.140625 19.890625 -0.046875 C 19.628906 0.046875 19.265625 0.140625 18.796875 0.234375 C 18.328125 0.328125 17.785156 0.375 17.171875 0.375 C 15.972656 0.375 14.988281 0.195312 14.21875 -0.15625 C 13.457031 -0.519531 12.929688 -1.019531 12.640625 -1.65625 C 11.859375 -1.039062 10.984375 -0.546875 10.015625 -0.171875 C 9.054688 0.191406 7.929688 0.375 6.640625 0.375 C 2.828125 0.375 0.921875 -1.144531 0.921875 -4.1875 C 0.921875 -5.757812 1.34375 -6.960938 2.1875 -7.796875 C 3.039062 -8.628906 4.269531 -9.195312 5.875 -9.5 C 7.476562 -9.8125 9.570312 -9.96875 12.15625 -9.96875 L 12.15625 -10.765625 C 12.15625 -11.398438 11.929688 -11.878906 11.484375 -12.203125 C 11.046875 -12.535156 10.476562 -12.703125 9.78125 -12.703125 C 9.144531 -12.703125 8.59375 -12.585938 8.125 -12.359375 C 7.664062 -12.140625 7.4375 -11.785156 7.4375 -11.296875 L 7.4375 -11.171875 L 1.421875 -11.171875 C 1.398438 -11.273438 1.390625 -11.414062 1.390625 -11.59375 C 1.390625 -13.132812 2.117188 -14.351562 3.578125 -15.25 C 5.046875 -16.15625 7.144531 -16.609375 9.875 -16.609375 Z M 12.15625 -7.078125 C 10.40625 -7.078125 9.113281 -6.882812 8.28125 -6.5 C 7.457031 -6.125 7.046875 -5.617188 7.046875 -4.984375 C 7.046875 -3.960938 7.742188 -3.453125 9.140625 -3.453125 C 9.941406 -3.453125 10.644531 -3.664062 11.25 -4.09375 C 11.851562 -4.519531 12.15625 -5.050781 12.15625 -5.6875 Z M 12.15625 -7.078125 "/></g></g></g><g fill="#000000" fill-opacity="1"><g transform="translate(178.583125, 27.352847)"><g><path d="M 11.71875 -16.640625 C 12.1875 -16.640625 12.601562 -16.582031 12.96875 -16.46875 C 13.34375 -16.363281 13.53125 -16.300781 13.53125 -16.28125 L 13.53125 -11.140625 L 11.5625 -11.140625 C 10.289062 -11.140625 9.375 -10.8125 8.8125 -10.15625 C 8.25 -9.5 7.96875 -8.523438 7.96875 -7.234375 L 7.96875 0 L 1.84375 0 L 1.84375 -16.25 L 6.859375 -16.25 L 7.265625 -13.78125 C 7.628906 -14.726562 8.210938 -15.441406 9.015625 -15.921875 C 9.816406 -16.398438 10.71875 -16.640625 11.71875 -16.640625 Z M 11.71875 -16.640625 "/></g></g></g><g fill="#000000" fill-opacity="1"><g transform="translate(194.029516, 27.352847)"><g><path d="M 13.015625 -0.5 C 12.171875 1.78125 11.140625 3.507812 9.921875 4.6875 C 8.703125 5.863281 6.992188 6.453125 4.796875 6.453125 C 3.460938 6.453125 2.285156 6.269531 1.265625 5.90625 L 1.265625 2.25 L 3.71875 2.25 C 5.257812 2.25 6.171875 1.5 6.453125 0 L 0 -16.25 L 6.578125 -16.25 L 9.6875 -5.453125 L 9.90625 -5.453125 L 12.765625 -16.25 L 18.796875 -16.25 Z M 13.015625 -0.5 "/></g></g></g><g fill="#000000" fill-opacity="1"><g transform="translate(16.991179, 64.166598)"><g><path d="M 16.453125 0 L 15.5625 -2.984375 L 8.15625 -2.984375 L 7.265625 0 L 0.3125 0 L 8.03125 -21.171875 L 15.9375 -21.171875 L 23.65625 0 Z M 9.5625 -7.71875 L 14.15625 -7.71875 L 11.9375 -15.265625 L 11.8125 -15.265625 Z M 9.5625 -7.71875 "/></g></g></g><g fill="#000000" fill-opacity="1"><g transform="translate(40.622308, 64.166598)"><g><path d="M 13.625 0 L 13.234375 -2.46875 C 12.597656 -1.582031 11.757812 -0.882812 10.71875 -0.375 C 9.6875 0.125 8.59375 0.375 7.4375 0.375 C 5.550781 0.375 4.132812 -0.144531 3.1875 -1.1875 C 2.25 -2.238281 1.78125 -3.75 1.78125 -5.71875 L 1.78125 -16.25 L 7.90625 -16.25 L 7.90625 -6.453125 C 7.90625 -5.765625 8.082031 -5.207031 8.4375 -4.78125 C 8.800781 -4.363281 9.3125 -4.15625 9.96875 -4.15625 C 10.726562 -4.15625 11.34375 -4.398438 11.8125 -4.890625 C 12.28125 -5.378906 12.515625 -5.984375 12.515625 -6.703125 L 12.515625 -16.25 L 18.640625 -16.25 L 18.640625 0 Z M 13.625 0 "/></g></g></g><g fill="#000000" fill-opacity="1"><g transform="translate(61.145694, 64.166598)"><g><path d="M 12.671875 -16.25 L 12.671875 -12.09375 L 9.234375 -12.09375 L 9.234375 -5.90625 C 9.234375 -5.164062 9.351562 -4.625 9.59375 -4.28125 C 9.84375 -3.945312 10.296875 -3.78125 10.953125 -3.78125 L 12.671875 -3.78125 L 12.671875 -0.1875 C 12.179688 -0.0195312 11.546875 0.113281 10.765625 0.21875 C 9.984375 0.320312 9.304688 0.375 8.734375 0.375 C 6.929688 0.375 5.539062 0.046875 4.5625 -0.609375 C 3.59375 -1.265625 3.109375 -2.382812 3.109375 -3.96875 L 3.109375 -12.09375 L 0.828125 -12.09375 L 0.828125 -16.25 L 3.359375 -16.25 L 4.671875 -21.171875 L 9.234375 -21.171875 L 9.234375 -16.25 Z M 12.671875 -16.25 "/></g></g></g><g fill="#000000" fill-opacity="1"><g transform="translate(74.807441, 64.166598)"><g><path d="M 10.25 -16.609375 C 13.09375 -16.609375 15.328125 -15.882812 16.953125 -14.4375 C 18.585938 -13 19.40625 -10.894531 19.40625 -8.125 C 19.40625 -5.351562 18.585938 -3.242188 16.953125 -1.796875 C 15.328125 -0.347656 13.09375 0.375 10.25 0.375 C 7.394531 0.375 5.15625 -0.34375 3.53125 -1.78125 C 1.914062 -3.21875 1.109375 -5.332031 1.109375 -8.125 C 1.109375 -10.914062 1.914062 -13.023438 3.53125 -14.453125 C 5.15625 -15.890625 7.394531 -16.609375 10.25 -16.609375 Z M 10.25 -12.453125 C 8.238281 -12.453125 7.234375 -11.296875 7.234375 -8.984375 L 7.234375 -7.234375 C 7.234375 -4.929688 8.238281 -3.78125 10.25 -3.78125 C 12.28125 -3.78125 13.296875 -4.929688 13.296875 -7.234375 L 13.296875 -8.984375 C 13.296875 -11.296875 12.28125 -12.453125 10.25 -12.453125 Z M 10.25 -12.453125 "/></g></g></g><g fill="#000000" fill-opacity="1"><g transform="translate(95.330827, 64.166598)"><g><path d="M 13.046875 -16.609375 C 14.929688 -16.609375 16.34375 -16.082031 17.28125 -15.03125 C 18.226562 -13.988281 18.703125 -12.484375 18.703125 -10.515625 L 18.703125 0 L 12.578125 0 L 12.578125 -9.78125 C 12.578125 -10.476562 12.394531 -11.035156 12.03125 -11.453125 C 11.675781 -11.878906 11.171875 -12.09375 10.515625 -12.09375 C 9.765625 -12.09375 9.148438 -11.84375 8.671875 -11.34375 C 8.203125 -10.851562 7.96875 -10.25 7.96875 -9.53125 L 7.96875 0 L 1.84375 0 L 1.84375 -16.25 L 6.859375 -16.25 L 7.265625 -13.78125 C 7.898438 -14.644531 8.734375 -15.332031 9.765625 -15.84375 C 10.804688 -16.351562 11.898438 -16.609375 13.046875 -16.609375 Z M 13.046875 -16.609375 "/></g></g></g><g fill="#000000" fill-opacity="1"><g transform="translate(115.854213, 64.166598)"><g><path d="M 10.25 -16.609375 C 13.09375 -16.609375 15.328125 -15.882812 16.953125 -14.4375 C 18.585938 -13 19.40625 -10.894531 19.40625 -8.125 C 19.40625 -5.351562 18.585938 -3.242188 16.953125 -1.796875 C 15.328125 -0.347656 13.09375 0.375 10.25 0.375 C 7.394531 0.375 5.15625 -0.34375 3.53125 -1.78125 C 1.914062 -3.21875 1.109375 -5.332031 1.109375 -8.125 C 1.109375 -10.914062 1.914062 -13.023438 3.53125 -14.453125 C 5.15625 -15.890625 7.394531 -16.609375 10.25 -16.609375 Z M 10.25 -12.453125 C 8.238281 -12.453125 7.234375 -11.296875 7.234375 -8.984375 L 7.234375 -7.234375 C 7.234375 -4.929688 8.238281 -3.78125 10.25 -3.78125 C 12.28125 -3.78125 13.296875 -4.929688 13.296875 -7.234375 L 13.296875 -8.984375 C 13.296875 -11.296875 12.28125 -12.453125 10.25 -12.453125 Z M 10.25 -12.453125 "/></g></g></g><g fill="#000000" fill-opacity="1"><g transform="translate(136.377599, 64.166598)"><g><path d="M 23.40625 -16.609375 C 25.257812 -16.609375 26.644531 -16.078125 27.5625 -15.015625 C 28.488281 -13.960938 28.953125 -12.460938 28.953125 -10.515625 L 28.953125 0 L 22.828125 0 L 22.828125 -9.78125 C 22.828125 -10.476562 22.65625 -11.035156 22.3125 -11.453125 C 21.976562 -11.878906 21.503906 -12.09375 20.890625 -12.09375 C 20.171875 -12.09375 19.582031 -11.84375 19.125 -11.34375 C 18.675781 -10.851562 18.453125 -10.25 18.453125 -9.53125 L 18.453125 0 L 12.34375 0 L 12.34375 -9.78125 C 12.34375 -10.476562 12.171875 -11.035156 11.828125 -11.453125 C 11.492188 -11.878906 11.019531 -12.09375 10.40625 -12.09375 C 9.6875 -12.09375 9.097656 -11.84375 8.640625 -11.34375 C 8.191406 -10.851562 7.96875 -10.25 7.96875 -9.53125 L 7.96875 0 L 1.84375 0 L 1.84375 -16.25 L 6.859375 -16.25 L 7.265625 -13.8125 C 7.878906 -14.675781 8.691406 -15.359375 9.703125 -15.859375 C 10.722656 -16.359375 11.796875 -16.609375 12.921875 -16.609375 C 15.359375 -16.609375 17 -15.675781 17.84375 -13.8125 C 18.476562 -14.675781 19.289062 -15.359375 20.28125 -15.859375 C 21.28125 -16.359375 22.320312 -16.609375 23.40625 -16.609375 Z M 23.40625 -16.609375 "/></g></g></g><g fill="#000000" fill-opacity="1"><g transform="translate(167.14731, 64.166598)"><g><path d="M 10.25 -16.609375 C 13.09375 -16.609375 15.328125 -15.882812 16.953125 -14.4375 C 18.585938 -13 19.40625 -10.894531 19.40625 -8.125 C 19.40625 -5.351562 18.585938 -3.242188 16.953125 -1.796875 C 15.328125 -0.347656 13.09375 0.375 10.25 0.375 C 7.394531 0.375 5.15625 -0.34375 3.53125 -1.78125 C 1.914062 -3.21875 1.109375 -5.332031 1.109375 -8.125 C 1.109375 -10.914062 1.914062 -13.023438 3.53125 -14.453125 C 5.15625 -15.890625 7.394531 -16.609375 10.25 -16.609375 Z M 10.25 -12.453125 C 8.238281 -12.453125 7.234375 -11.296875 7.234375 -8.984375 L 7.234375 -7.234375 C 7.234375 -4.929688 8.238281 -3.78125 10.25 -3.78125 C 12.28125 -3.78125 13.296875 -4.929688 13.296875 -7.234375 L 13.296875 -8.984375 C 13.296875 -11.296875 12.28125 -12.453125 10.25 -12.453125 Z M 10.25 -12.453125 "/></g></g></g><g fill="#000000" fill-opacity="1"><g transform="translate(187.670696, 64.166598)"><g><path d="M 13.625 0 L 13.234375 -2.46875 C 12.597656 -1.582031 11.757812 -0.882812 10.71875 -0.375 C 9.6875 0.125 8.59375 0.375 7.4375 0.375 C 5.550781 0.375 4.132812 -0.144531 3.1875 -1.1875 C 2.25 -2.238281 1.78125 -3.75 1.78125 -5.71875 L 1.78125 -16.25 L 7.90625 -16.25 L 7.90625 -6.453125 C 7.90625 -5.765625 8.082031 -5.207031 8.4375 -4.78125 C 8.800781 -4.363281 9.3125 -4.15625 9.96875 -4.15625 C 10.726562 -4.15625 11.34375 -4.398438 11.8125 -4.890625 C 12.28125 -5.378906 12.515625 -5.984375 12.515625 -6.703125 L 12.515625 -16.25 L 18.640625 -16.25 L 18.640625 0 Z M 13.625 0 "/></g></g></g><g fill="#000000" fill-opacity="1"><g transform="translate(208.194082, 64.166598)"><g><path d="M 9.5625 -16.609375 C 11.738281 -16.609375 13.582031 -16.179688 15.09375 -15.328125 C 16.601562 -14.484375 17.359375 -13.171875 17.359375 -11.390625 L 11.65625 -11.390625 C 11.65625 -11.984375 11.390625 -12.398438 10.859375 -12.640625 C 10.492188 -12.847656 10.03125 -12.953125 9.46875 -12.953125 C 8 -12.953125 7.265625 -12.601562 7.265625 -11.90625 C 7.265625 -11.519531 7.519531 -11.242188 8.03125 -11.078125 C 8.539062 -10.910156 9.378906 -10.734375 10.546875 -10.546875 C 11.984375 -10.347656 13.179688 -10.109375 14.140625 -9.828125 C 15.109375 -9.554688 15.953125 -9.066406 16.671875 -8.359375 C 17.390625 -7.648438 17.75 -6.660156 17.75 -5.390625 C 17.75 -3.316406 16.972656 -1.835938 15.421875 -0.953125 C 13.878906 -0.0664062 11.859375 0.375 9.359375 0.375 C 7.921875 0.375 6.566406 0.175781 5.296875 -0.21875 C 4.023438 -0.625 2.988281 -1.25 2.1875 -2.09375 C 1.382812 -2.9375 0.984375 -4.003906 0.984375 -5.296875 L 6.671875 -5.296875 L 6.671875 -5.171875 C 6.691406 -4.472656 6.984375 -3.984375 7.546875 -3.703125 C 8.117188 -3.429688 8.722656 -3.296875 9.359375 -3.296875 C 11.054688 -3.296875 11.90625 -3.691406 11.90625 -4.484375 C 11.90625 -4.898438 11.640625 -5.195312 11.109375 -5.375 C 10.578125 -5.5625 9.703125 -5.757812 8.484375 -5.96875 C 7.035156 -6.21875 5.84375 -6.484375 4.90625 -6.765625 C 3.96875 -7.054688 3.148438 -7.546875 2.453125 -8.234375 C 1.765625 -8.921875 1.421875 -9.878906 1.421875 -11.109375 C 1.421875 -13.097656 2.171875 -14.507812 3.671875 -15.34375 C 5.179688 -16.1875 7.144531 -16.609375 9.5625 -16.609375 Z M 9.5625 -16.609375 "/></g></g></g><g fill="#000000" fill-opacity="1"><g transform="translate(0.687701, 100.980349)"><g><path d="M 2.28125 -21.171875 L 9.078125 -21.171875 L 9.078125 -5.421875 L 19.9375 -5.421875 L 19.9375 0 L 2.28125 0 Z M 2.28125 -21.171875 "/></g></g></g><g fill="#000000" fill-opacity="1"><g transform="translate(21.211087, 100.980349)"><g><path d="M 10.25 -16.609375 C 13.21875 -16.609375 15.484375 -15.910156 17.046875 -14.515625 C 18.617188 -13.117188 19.40625 -10.988281 19.40625 -8.125 L 19.40625 -7.078125 L 7.234375 -7.078125 C 7.234375 -5.910156 7.492188 -5.023438 8.015625 -4.421875 C 8.535156 -3.828125 9.359375 -3.53125 10.484375 -3.53125 C 11.515625 -3.53125 12.269531 -3.742188 12.75 -4.171875 C 13.226562 -4.609375 13.46875 -5.1875 13.46875 -5.90625 L 19.40625 -5.90625 C 19.40625 -3.9375 18.65625 -2.394531 17.15625 -1.28125 C 15.664062 -0.175781 13.484375 0.375 10.609375 0.375 C 7.597656 0.375 5.257812 -0.328125 3.59375 -1.734375 C 1.9375 -3.140625 1.109375 -5.269531 1.109375 -8.125 C 1.109375 -10.914062 1.914062 -13.023438 3.53125 -14.453125 C 5.15625 -15.890625 7.394531 -16.609375 10.25 -16.609375 Z M 10.484375 -12.703125 C 8.554688 -12.703125 7.484375 -11.789062 7.265625 -9.96875 L 13.234375 -9.96875 C 13.234375 -10.8125 12.988281 -11.476562 12.5 -11.96875 C 12.019531 -12.457031 11.347656 -12.703125 10.484375 -12.703125 Z M 10.484375 -12.703125 "/></g></g></g><g fill="#000000" fill-opacity="1"><g transform="translate(41.734473, 100.980349)"><g><path d="M 9.875 -16.609375 C 12.351562 -16.609375 14.375 -16.191406 15.9375 -15.359375 C 17.5 -14.535156 18.28125 -13.191406 18.28125 -11.328125 L 18.28125 -4.984375 C 18.28125 -4.640625 18.359375 -4.351562 18.515625 -4.125 C 18.679688 -3.894531 18.929688 -3.78125 19.265625 -3.78125 L 20.359375 -3.78125 L 20.359375 -0.25 C 20.304688 -0.207031 20.148438 -0.140625 19.890625 -0.046875 C 19.628906 0.046875 19.265625 0.140625 18.796875 0.234375 C 18.328125 0.328125 17.785156 0.375 17.171875 0.375 C 15.972656 0.375 14.988281 0.195312 14.21875 -0.15625 C 13.457031 -0.519531 12.929688 -1.019531 12.640625 -1.65625 C 11.859375 -1.039062 10.984375 -0.546875 10.015625 -0.171875 C 9.054688 0.191406 7.929688 0.375 6.640625 0.375 C 2.828125 0.375 0.921875 -1.144531 0.921875 -4.1875 C 0.921875 -5.757812 1.34375 -6.960938 2.1875 -7.796875 C 3.039062 -8.628906 4.269531 -9.195312 5.875 -9.5 C 7.476562 -9.8125 9.570312 -9.96875 12.15625 -9.96875 L 12.15625 -10.765625 C 12.15625 -11.398438 11.929688 -11.878906 11.484375 -12.203125 C 11.046875 -12.535156 10.476562 -12.703125 9.78125 -12.703125 C 9.144531 -12.703125 8.59375 -12.585938 8.125 -12.359375 C 7.664062 -12.140625 7.4375 -11.785156 7.4375 -11.296875 L 7.4375 -11.171875 L 1.421875 -11.171875 C 1.398438 -11.273438 1.390625 -11.414062 1.390625 -11.59375 C 1.390625 -13.132812 2.117188 -14.351562 3.578125 -15.25 C 5.046875 -16.15625 7.144531 -16.609375 9.875 -16.609375 Z M 12.15625 -7.078125 C 10.40625 -7.078125 9.113281 -6.882812 8.28125 -6.5 C 7.457031 -6.125 7.046875 -5.617188 7.046875 -4.984375 C 7.046875 -3.960938 7.742188 -3.453125 9.140625 -3.453125 C 9.941406 -3.453125 10.644531 -3.664062 11.25 -4.09375 C 11.851562 -4.519531 12.15625 -5.050781 12.15625 -5.6875 Z M 12.15625 -7.078125 "/></g></g></g><g fill="#000000" fill-opacity="1"><g transform="translate(62.257859, 100.980349)"><g><path d="M 11.71875 -16.640625 C 12.1875 -16.640625 12.601562 -16.582031 12.96875 -16.46875 C 13.34375 -16.363281 13.53125 -16.300781 13.53125 -16.28125 L 13.53125 -11.140625 L 11.5625 -11.140625 C 10.289062 -11.140625 9.375 -10.8125 8.8125 -10.15625 C 8.25 -9.5 7.96875 -8.523438 7.96875 -7.234375 L 7.96875 0 L 1.84375 0 L 1.84375 -16.25 L 6.859375 -16.25 L 7.265625 -13.78125 C 7.628906 -14.726562 8.210938 -15.441406 9.015625 -15.921875 C 9.816406 -16.398438 10.71875 -16.640625 11.71875 -16.640625 Z M 11.71875 -16.640625 "/></g></g></g><g fill="#000000" fill-opacity="1"><g transform="translate(77.458092, 100.980349)"><g><path d="M 13.046875 -16.609375 C 14.929688 -16.609375 16.34375 -16.082031 17.28125 -15.03125 C 18.226562 -13.988281 18.703125 -12.484375 18.703125 -10.515625 L 18.703125 0 L 12.578125 0 L 12.578125 -9.78125 C 12.578125 -10.476562 12.394531 -11.035156 12.03125 -11.453125 C 11.675781 -11.878906 11.171875 -12.09375 10.515625 -12.09375 C 9.765625 -12.09375 9.148438 -11.84375 8.671875 -11.34375 C 8.203125 -10.851562 7.96875 -10.25 7.96875 -9.53125 L 7.96875 0 L 1.84375 0 L 1.84375 -16.25 L 6.859375 -16.25 L 7.265625 -13.78125 C 7.898438 -14.644531 8.734375 -15.332031 9.765625 -15.84375 C 10.804688 -16.351562 11.898438 -16.609375 13.046875 -16.609375 Z M 13.046875 -16.609375 "/></g></g></g><g fill="#000000" fill-opacity="1"><g transform="translate(97.981478, 100.980349)"><g><path d="M 2.0625 -18.15625 L 2.0625 -22.3125 L 8.1875 -22.3125 L 8.1875 -18.15625 Z M 2.0625 0 L 2.0625 -16.25 L 8.1875 -16.25 L 8.1875 0 Z M 2.0625 0 "/></g></g></g><g fill="#000000" fill-opacity="1"><g transform="translate(108.227787, 100.980349)"><g><path d="M 13.046875 -16.609375 C 14.929688 -16.609375 16.34375 -16.082031 17.28125 -15.03125 C 18.226562 -13.988281 18.703125 -12.484375 18.703125 -10.515625 L 18.703125 0 L 12.578125 0 L 12.578125 -9.78125 C 12.578125 -10.476562 12.394531 -11.035156 12.03125 -11.453125 C 11.675781 -11.878906 11.171875 -12.09375 10.515625 -12.09375 C 9.765625 -12.09375 9.148438 -11.84375 8.671875 -11.34375 C 8.203125 -10.851562 7.96875 -10.25 7.96875 -9.53125 L 7.96875 0 L 1.84375 0 L 1.84375 -16.25 L 6.859375 -16.25 L 7.265625 -13.78125 C 7.898438 -14.644531 8.734375 -15.332031 9.765625 -15.84375 C 10.804688 -16.351562 11.898438 -16.609375 13.046875 -16.609375 Z M 13.046875 -16.609375 "/></g></g></g><g clip-path="url(#53c5a4da72)"><g fill="#000000" fill-opacity="1"><g transform="translate(128.751173, 100.980349)"><g><path d="M 20.125 -19.296875 C 20.125 -18.035156 19.8125 -17.066406 19.1875 -16.390625 C 18.5625 -15.710938 17.625 -15.210938 16.375 -14.890625 C 16.96875 -14.441406 17.429688 -13.914062 17.765625 -13.3125 C 18.109375 -12.707031 18.28125 -12.066406 18.28125 -11.390625 C 18.28125 -9.660156 17.628906 -8.351562 16.328125 -7.46875 C 15.023438 -6.59375 13.394531 -6.15625 11.4375 -6.15625 L 9.109375 -6.15625 C 7.816406 -6.15625 7.171875 -5.859375 7.171875 -5.265625 C 7.171875 -4.972656 7.3125 -4.738281 7.59375 -4.5625 C 7.882812 -4.394531 8.390625 -4.3125 9.109375 -4.3125 L 14.640625 -4.3125 C 16.453125 -4.3125 17.816406 -3.835938 18.734375 -2.890625 C 19.660156 -1.953125 20.125 -0.691406 20.125 0.890625 C 20.125 2.054688 19.816406 3.0625 19.203125 3.90625 C 18.585938 4.75 17.753906 5.382812 16.703125 5.8125 C 15.660156 6.238281 14.523438 6.453125 13.296875 6.453125 L 4.25 6.453125 C 3.507812 6.453125 2.828125 6.28125 2.203125 5.9375 C 1.578125 5.59375 1.078125 5.113281 0.703125 4.5 C 0.335938 3.894531 0.15625 3.222656 0.15625 2.484375 C 0.15625 1.691406 0.398438 0.972656 0.890625 0.328125 C 1.378906 -0.316406 1.992188 -0.804688 2.734375 -1.140625 C 2.242188 -1.484375 1.851562 -1.898438 1.5625 -2.390625 C 1.28125 -2.890625 1.140625 -3.425781 1.140625 -4 C 1.140625 -4.800781 1.4375 -5.523438 2.03125 -6.171875 C 2.625 -6.816406 3.363281 -7.25 4.25 -7.46875 C 3.445312 -7.988281 2.804688 -8.582031 2.328125 -9.25 C 1.859375 -9.914062 1.625 -10.617188 1.625 -11.359375 C 1.625 -13.242188 2.390625 -14.585938 3.921875 -15.390625 C 5.453125 -16.203125 7.476562 -16.609375 10 -16.609375 C 11.101562 -16.609375 11.992188 -16.546875 12.671875 -16.421875 C 13.679688 -17.054688 14.332031 -17.632812 14.625 -18.15625 C 14.925781 -18.6875 15.078125 -19.066406 15.078125 -19.296875 Z M 9.9375 -13.40625 C 9.257812 -13.40625 8.703125 -13.234375 8.265625 -12.890625 C 7.835938 -12.546875 7.625 -12.046875 7.625 -11.390625 C 7.625 -10.710938 7.820312 -10.203125 8.21875 -9.859375 C 8.625 -9.523438 9.195312 -9.359375 9.9375 -9.359375 C 10.675781 -9.359375 11.253906 -9.523438 11.671875 -9.859375 C 12.097656 -10.203125 12.3125 -10.710938 12.3125 -11.390625 C 12.3125 -12.066406 12.097656 -12.570312 11.671875 -12.90625 C 11.253906 -13.238281 10.675781 -13.40625 9.9375 -13.40625 Z M 7.5625 0 C 7.09375 0 6.707031 0.125 6.40625 0.375 C 6.113281 0.632812 5.96875 1.003906 5.96875 1.484375 C 5.96875 1.953125 6.117188 2.328125 6.421875 2.609375 C 6.734375 2.898438 7.113281 3.046875 7.5625 3.046875 L 12.375 3.046875 C 12.820312 3.046875 13.203125 2.90625 13.515625 2.625 C 13.835938 2.351562 14 1.976562 14 1.5 C 14 1.03125 13.84375 0.660156 13.53125 0.390625 C 13.226562 0.128906 12.84375 0 12.375 0 Z M 7.5625 0 "/></g></g></g></g><g fill="#000000" fill-opacity="1"><g transform="translate(149.274567, 100.980349)"><g/></g></g><g fill="#000000" fill-opacity="1"><g transform="translate(159.520867, 100.980349)"><g><path d="M 11.203125 -5.078125 L 21.265625 -5.078125 L 21.265625 0 L 0.734375 0 L 0.734375 -2.1875 L 10.546875 -16.09375 L 1.484375 -16.09375 L 1.484375 -21.171875 L 21.015625 -21.171875 L 21.015625 -18.984375 Z M 11.203125 -5.078125 "/></g></g></g><g fill="#000000" fill-opacity="1"><g transform="translate(181.736579, 100.980349)"><g><path d="M 10.25 -16.609375 C 13.09375 -16.609375 15.328125 -15.882812 16.953125 -14.4375 C 18.585938 -13 19.40625 -10.894531 19.40625 -8.125 C 19.40625 -5.351562 18.585938 -3.242188 16.953125 -1.796875 C 15.328125 -0.347656 13.09375 0.375 10.25 0.375 C 7.394531 0.375 5.15625 -0.34375 3.53125 -1.78125 C 1.914062 -3.21875 1.109375 -5.332031 1.109375 -8.125 C 1.109375 -10.914062 1.914062 -13.023438 3.53125 -14.453125 C 5.15625 -15.890625 7.394531 -16.609375 10.25 -16.609375 Z M 10.25 -12.453125 C 8.238281 -12.453125 7.234375 -11.296875 7.234375 -8.984375 L 7.234375 -7.234375 C 7.234375 -4.929688 8.238281 -3.78125 10.25 -3.78125 C 12.28125 -3.78125 13.296875 -4.929688 13.296875 -7.234375 L 13.296875 -8.984375 C 13.296875 -11.296875 12.28125 -12.453125 10.25 -12.453125 Z M 10.25 -12.453125 "/></g></g></g><g fill="#000000" fill-opacity="1"><g transform="translate(202.259965, 100.980349)"><g><path d="M 13.046875 -16.609375 C 14.929688 -16.609375 16.34375 -16.082031 17.28125 -15.03125 C 18.226562 -13.988281 18.703125 -12.484375 18.703125 -10.515625 L 18.703125 0 L 12.578125 0 L 12.578125 -9.78125 C 12.578125 -10.476562 12.394531 -11.035156 12.03125 -11.453125 C 11.675781 -11.878906 11.171875 -12.09375 10.515625 -12.09375 C 9.765625 -12.09375 9.148438 -11.84375 8.671875 -11.34375 C 8.203125 -10.851562 7.96875 -10.25 7.96875 -9.53125 L 7.96875 0 L 1.84375 0 L 1.84375 -16.25 L 6.859375 -16.25 L 7.265625 -13.78125 C 7.898438 -14.644531 8.734375 -15.332031 9.765625 -15.84375 C 10.804688 -16.351562 11.898438 -16.609375 13.046875 -16.609375 Z M 13.046875 -16.609375 "/></g></g></g><g fill="#000000" fill-opacity="1"><g transform="translate(222.783351, 100.980349)"><g><path d="M 10.25 -16.609375 C 13.21875 -16.609375 15.484375 -15.910156 17.046875 -14.515625 C 18.617188 -13.117188 19.40625 -10.988281 19.40625 -8.125 L 19.40625 -7.078125 L 7.234375 -7.078125 C 7.234375 -5.910156 7.492188 -5.023438 8.015625 -4.421875 C 8.535156 -3.828125 9.359375 -3.53125 10.484375 -3.53125 C 11.515625 -3.53125 12.269531 -3.742188 12.75 -4.171875 C 13.226562 -4.609375 13.46875 -5.1875 13.46875 -5.90625 L 19.40625 -5.90625 C 19.40625 -3.9375 18.65625 -2.394531 17.15625 -1.28125 C 15.664062 -0.175781 13.484375 0.375 10.609375 0.375 C 7.597656 0.375 5.257812 -0.328125 3.59375 -1.734375 C 1.9375 -3.140625 1.109375 -5.269531 1.109375 -8.125 C 1.109375 -10.914062 1.914062 -13.023438 3.53125 -14.453125 C 5.15625 -15.890625 7.394531 -16.609375 10.25 -16.609375 Z M 10.484375 -12.703125 C 8.554688 -12.703125 7.484375 -11.789062 7.265625 -9.96875 L 13.234375 -9.96875 C 13.234375 -10.8125 12.988281 -11.476562 12.5 -11.96875 C 12.019531 -12.457031 11.347656 -12.703125 10.484375 -12.703125 Z M 10.484375 -12.703125 "/></g></g></g></g></g><g transform="matrix(1, 0, 0, 1, 321, 82)"><g clip-path="url(#f8b60d0880)"><g fill="#ffffff" fill-opacity="1"><g transform="translate(38.287755, 21.544101)"><g><path d="M 8.890625 -17.140625 C 11.046875 -17.140625 12.816406 -16.703125 14.203125 -15.828125 C 15.585938 -14.953125 16.296875 -13.660156 16.328125 -11.953125 L 16.328125 -11.65625 L 11.265625 -11.65625 L 11.265625 -11.75 C 11.265625 -12.238281 11.082031 -12.644531 10.71875 -12.96875 C 10.363281 -13.300781 9.816406 -13.46875 9.078125 -13.46875 C 8.359375 -13.46875 7.804688 -13.359375 7.421875 -13.140625 C 7.046875 -12.929688 6.859375 -12.671875 6.859375 -12.359375 C 6.859375 -11.921875 7.117188 -11.59375 7.640625 -11.375 C 8.160156 -11.164062 9 -10.945312 10.15625 -10.71875 C 11.507812 -10.445312 12.625 -10.160156 13.5 -9.859375 C 14.375 -9.554688 15.132812 -9.0625 15.78125 -8.375 C 16.4375 -7.6875 16.773438 -6.753906 16.796875 -5.578125 C 16.796875 -3.585938 16.117188 -2.109375 14.765625 -1.140625 C 13.421875 -0.179688 11.625 0.296875 9.375 0.296875 C 6.75 0.296875 4.703125 -0.140625 3.234375 -1.015625 C 1.773438 -1.898438 1.046875 -3.460938 1.046875 -5.703125 L 6.171875 -5.703125 C 6.171875 -4.859375 6.390625 -4.289062 6.828125 -4 C 7.273438 -3.71875 7.960938 -3.578125 8.890625 -3.578125 C 9.578125 -3.578125 10.144531 -3.648438 10.59375 -3.796875 C 11.039062 -3.941406 11.265625 -4.242188 11.265625 -4.703125 C 11.265625 -5.109375 11.015625 -5.410156 10.515625 -5.609375 C 10.015625 -5.816406 9.203125 -6.035156 8.078125 -6.265625 C 6.703125 -6.554688 5.566406 -6.859375 4.671875 -7.171875 C 3.773438 -7.492188 2.992188 -8.023438 2.328125 -8.765625 C 1.660156 -9.503906 1.328125 -10.5 1.328125 -11.75 C 1.328125 -13.59375 2.039062 -14.953125 3.46875 -15.828125 C 4.894531 -16.703125 6.703125 -17.140625 8.890625 -17.140625 Z M 8.890625 -17.140625 "/></g></g></g><g fill="#ffffff" fill-opacity="1"><g transform="translate(55.970497, 21.544101)"><g><path d="M 8.15625 -13.21875 C 10.425781 -13.21875 12.207031 -12.640625 13.5 -11.484375 C 14.800781 -10.335938 15.453125 -8.664062 15.453125 -6.46875 C 15.453125 -4.257812 14.800781 -2.578125 13.5 -1.421875 C 12.207031 -0.273438 10.425781 0.296875 8.15625 0.296875 C 5.882812 0.296875 4.101562 -0.273438 2.8125 -1.421875 C 1.519531 -2.566406 0.875 -4.25 0.875 -6.46875 C 0.875 -8.6875 1.519531 -10.363281 2.8125 -11.5 C 4.101562 -12.644531 5.882812 -13.21875 8.15625 -13.21875 Z M 8.15625 -9.921875 C 6.550781 -9.921875 5.75 -9 5.75 -7.15625 L 5.75 -5.75 C 5.75 -3.925781 6.550781 -3.015625 8.15625 -3.015625 C 9.769531 -3.015625 10.578125 -3.925781 10.578125 -5.75 L 10.578125 -7.15625 C 10.578125 -9 9.769531 -9.921875 8.15625 -9.921875 Z M 8.15625 -9.921875 "/></g></g></g><g fill="#ffffff" fill-opacity="1"><g transform="translate(72.306214, 21.544101)"><g><path d="M 8.15625 -13.21875 C 10.28125 -13.21875 12 -12.765625 13.3125 -11.859375 C 14.625 -10.953125 15.28125 -9.570312 15.28125 -7.71875 L 10.546875 -7.71875 C 10.546875 -9.1875 9.75 -9.921875 8.15625 -9.921875 C 6.550781 -9.921875 5.75 -9 5.75 -7.15625 L 5.75 -5.75 C 5.75 -3.925781 6.582031 -3.015625 8.25 -3.015625 C 9.914062 -3.015625 10.75 -3.765625 10.75 -5.265625 L 15.28125 -5.265625 C 15.28125 -3.390625 14.625 -1.992188 13.3125 -1.078125 C 12 -0.160156 10.28125 0.296875 8.15625 0.296875 C 5.882812 0.296875 4.101562 -0.273438 2.8125 -1.421875 C 1.519531 -2.566406 0.875 -4.25 0.875 -6.46875 C 0.875 -8.6875 1.519531 -10.363281 2.8125 -11.5 C 4.101562 -12.644531 5.882812 -13.21875 8.15625 -13.21875 Z M 8.15625 -13.21875 "/></g></g></g><g fill="#ffffff" fill-opacity="1"><g transform="translate(88.641932, 21.544101)"><g><path d="M 1.640625 -14.453125 L 1.640625 -17.75 L 6.515625 -17.75 L 6.515625 -14.453125 Z M 1.640625 0 L 1.640625 -12.921875 L 6.515625 -12.921875 L 6.515625 0 Z M 1.640625 0 "/></g></g></g><g fill="#ffffff" fill-opacity="1"><g transform="translate(96.797545, 21.544101)"><g><path d="M 7.859375 -13.21875 C 9.835938 -13.21875 11.445312 -12.882812 12.6875 -12.21875 C 13.925781 -11.5625 14.546875 -10.492188 14.546875 -9.015625 L 14.546875 -3.96875 C 14.546875 -3.6875 14.609375 -3.457031 14.734375 -3.28125 C 14.867188 -3.101562 15.066406 -3.015625 15.328125 -3.015625 L 16.203125 -3.015625 L 16.203125 -0.203125 C 16.160156 -0.160156 16.035156 -0.101562 15.828125 -0.03125 C 15.617188 0.0390625 15.328125 0.113281 14.953125 0.1875 C 14.578125 0.257812 14.144531 0.296875 13.65625 0.296875 C 12.71875 0.296875 11.941406 0.15625 11.328125 -0.125 C 10.710938 -0.414062 10.289062 -0.816406 10.0625 -1.328125 C 9.4375 -0.835938 8.738281 -0.441406 7.96875 -0.140625 C 7.207031 0.148438 6.3125 0.296875 5.28125 0.296875 C 2.25 0.296875 0.734375 -0.910156 0.734375 -3.328125 C 0.734375 -4.585938 1.070312 -5.546875 1.75 -6.203125 C 2.425781 -6.867188 3.398438 -7.320312 4.671875 -7.5625 C 5.953125 -7.8125 7.617188 -7.9375 9.671875 -7.9375 L 9.671875 -8.5625 C 9.671875 -9.070312 9.492188 -9.457031 9.140625 -9.71875 C 8.796875 -9.976562 8.34375 -10.109375 7.78125 -10.109375 C 7.28125 -10.109375 6.84375 -10.019531 6.46875 -9.84375 C 6.101562 -9.664062 5.921875 -9.378906 5.921875 -8.984375 L 5.921875 -8.890625 L 1.125 -8.890625 C 1.113281 -8.972656 1.109375 -9.085938 1.109375 -9.234375 C 1.109375 -10.453125 1.691406 -11.421875 2.859375 -12.140625 C 4.023438 -12.859375 5.691406 -13.21875 7.859375 -13.21875 Z M 9.671875 -5.625 C 8.285156 -5.625 7.257812 -5.472656 6.59375 -5.171875 C 5.9375 -4.867188 5.609375 -4.46875 5.609375 -3.96875 C 5.609375 -3.15625 6.160156 -2.75 7.265625 -2.75 C 7.910156 -2.75 8.472656 -2.914062 8.953125 -3.25 C 9.429688 -3.59375 9.671875 -4.019531 9.671875 -4.53125 Z M 9.671875 -5.625 "/></g></g></g><g fill="#ffffff" fill-opacity="1"><g transform="translate(113.133262, 21.544101)"><g><path d="M 1.640625 0 L 1.640625 -17.75 L 6.515625 -17.75 L 6.515625 0 Z M 1.640625 0 "/></g></g></g><g fill="#ffffff" fill-opacity="1"><g transform="translate(0.177211, 50.846236)"><g><path d="M 2.0625 0 L 2.0625 -16.84375 L 7.46875 -16.84375 L 7.46875 0 Z M 2.0625 0 "/></g></g></g><g fill="#ffffff" fill-opacity="1"><g transform="translate(9.70434, 50.846236)"><g><path d="M 18.625 -13.21875 C 20.101562 -13.21875 21.207031 -12.796875 21.9375 -11.953125 C 22.675781 -11.117188 23.046875 -9.925781 23.046875 -8.375 L 23.046875 0 L 18.171875 0 L 18.171875 -7.78125 C 18.171875 -8.34375 18.035156 -8.789062 17.765625 -9.125 C 17.492188 -9.457031 17.113281 -9.625 16.625 -9.625 C 16.050781 -9.625 15.582031 -9.425781 15.21875 -9.03125 C 14.863281 -8.644531 14.6875 -8.164062 14.6875 -7.59375 L 14.6875 0 L 9.8125 0 L 9.8125 -7.78125 C 9.8125 -8.34375 9.675781 -8.789062 9.40625 -9.125 C 9.144531 -9.457031 8.769531 -9.625 8.28125 -9.625 C 7.707031 -9.625 7.238281 -9.425781 6.875 -9.03125 C 6.519531 -8.644531 6.34375 -8.164062 6.34375 -7.59375 L 6.34375 0 L 1.46875 0 L 1.46875 -12.921875 L 5.453125 -12.921875 L 5.78125 -11 C 6.269531 -11.675781 6.914062 -12.210938 7.71875 -12.609375 C 8.53125 -13.015625 9.382812 -13.21875 10.28125 -13.21875 C 12.226562 -13.21875 13.535156 -12.476562 14.203125 -11 C 14.703125 -11.675781 15.347656 -12.210938 16.140625 -12.609375 C 16.929688 -13.015625 17.757812 -13.21875 18.625 -13.21875 Z M 18.625 -13.21875 "/></g></g><g transform="translate(34.195677, 50.846236)"><g><path d="M 7.859375 -13.21875 C 9.835938 -13.21875 11.445312 -12.882812 12.6875 -12.21875 C 13.925781 -11.5625 14.546875 -10.492188 14.546875 -9.015625 L 14.546875 -3.96875 C 14.546875 -3.6875 14.609375 -3.457031 14.734375 -3.28125 C 14.867188 -3.101562 15.066406 -3.015625 15.328125 -3.015625 L 16.203125 -3.015625 L 16.203125 -0.203125 C 16.160156 -0.160156 16.035156 -0.101562 15.828125 -0.03125 C 15.617188 0.0390625 15.328125 0.113281 14.953125 0.1875 C 14.578125 0.257812 14.144531 0.296875 13.65625 0.296875 C 12.71875 0.296875 11.941406 0.15625 11.328125 -0.125 C 10.710938 -0.414062 10.289062 -0.816406 10.0625 -1.328125 C 9.4375 -0.835938 8.738281 -0.441406 7.96875 -0.140625 C 7.207031 0.148438 6.3125 0.296875 5.28125 0.296875 C 2.25 0.296875 0.734375 -0.910156 0.734375 -3.328125 C 0.734375 -4.585938 1.070312 -5.546875 1.75 -6.203125 C 2.425781 -6.867188 3.398438 -7.320312 4.671875 -7.5625 C 5.953125 -7.8125 7.617188 -7.9375 9.671875 -7.9375 L 9.671875 -8.5625 C 9.671875 -9.070312 9.492188 -9.457031 9.140625 -9.71875 C 8.796875 -9.976562 8.34375 -10.109375 7.78125 -10.109375 C 7.28125 -10.109375 6.84375 -10.019531 6.46875 -9.84375 C 6.101562 -9.664062 5.921875 -9.378906 5.921875 -8.984375 L 5.921875 -8.890625 L 1.125 -8.890625 C 1.113281 -8.972656 1.109375 -9.085938 1.109375 -9.234375 C 1.109375 -10.453125 1.691406 -11.421875 2.859375 -12.140625 C 4.023438 -12.859375 5.691406 -13.21875 7.859375 -13.21875 Z M 9.671875 -5.625 C 8.285156 -5.625 7.257812 -5.472656 6.59375 -5.171875 C 5.9375 -4.867188 5.609375 -4.46875 5.609375 -3.96875 C 5.609375 -3.15625 6.160156 -2.75 7.265625 -2.75 C 7.910156 -2.75 8.472656 -2.914062 8.953125 -3.25 C 9.429688 -3.59375 9.671875 -4.019531 9.671875 -4.53125 Z M 9.671875 -5.625 "/></g></g></g><g fill="#ffffff" fill-opacity="1"><g transform="translate(50.531395, 50.846236)"><g><path d="M 16.015625 -15.359375 C 16.015625 -14.359375 15.765625 -13.585938 15.265625 -13.046875 C 14.765625 -12.515625 14.019531 -12.113281 13.03125 -11.84375 C 13.5 -11.488281 13.867188 -11.070312 14.140625 -10.59375 C 14.410156 -10.113281 14.546875 -9.601562 14.546875 -9.0625 C 14.546875 -7.6875 14.023438 -6.644531 12.984375 -5.9375 C 11.953125 -5.238281 10.660156 -4.890625 9.109375 -4.890625 L 7.25 -4.890625 C 6.21875 -4.890625 5.703125 -4.65625 5.703125 -4.1875 C 5.703125 -3.957031 5.816406 -3.769531 6.046875 -3.625 C 6.273438 -3.488281 6.675781 -3.421875 7.25 -3.421875 L 11.65625 -3.421875 C 13.09375 -3.421875 14.175781 -3.046875 14.90625 -2.296875 C 15.644531 -1.546875 16.015625 -0.546875 16.015625 0.703125 C 16.015625 1.640625 15.769531 2.441406 15.28125 3.109375 C 14.789062 3.773438 14.128906 4.28125 13.296875 4.625 C 12.460938 4.96875 11.554688 5.140625 10.578125 5.140625 L 3.375 5.140625 C 2.789062 5.140625 2.25 5 1.75 4.71875 C 1.25 4.445312 0.851562 4.066406 0.5625 3.578125 C 0.269531 3.097656 0.125 2.566406 0.125 1.984375 C 0.125 1.347656 0.316406 0.769531 0.703125 0.25 C 1.097656 -0.257812 1.585938 -0.644531 2.171875 -0.90625 C 1.785156 -1.1875 1.476562 -1.519531 1.25 -1.90625 C 1.019531 -2.300781 0.90625 -2.726562 0.90625 -3.1875 C 0.90625 -3.820312 1.140625 -4.394531 1.609375 -4.90625 C 2.085938 -5.425781 2.675781 -5.773438 3.375 -5.953125 C 2.738281 -6.359375 2.234375 -6.828125 1.859375 -7.359375 C 1.484375 -7.890625 1.296875 -8.445312 1.296875 -9.03125 C 1.296875 -10.53125 1.90625 -11.601562 3.125 -12.25 C 4.34375 -12.894531 5.953125 -13.21875 7.953125 -13.21875 C 8.835938 -13.21875 9.550781 -13.171875 10.09375 -13.078125 C 10.882812 -13.578125 11.398438 -14.035156 11.640625 -14.453125 C 11.878906 -14.867188 12 -15.171875 12 -15.359375 Z M 7.90625 -10.671875 C 7.363281 -10.671875 6.921875 -10.53125 6.578125 -10.25 C 6.242188 -9.976562 6.078125 -9.582031 6.078125 -9.0625 C 6.078125 -8.519531 6.234375 -8.113281 6.546875 -7.84375 C 6.867188 -7.570312 7.320312 -7.4375 7.90625 -7.4375 C 8.5 -7.4375 8.960938 -7.570312 9.296875 -7.84375 C 9.628906 -8.113281 9.796875 -8.519531 9.796875 -9.0625 C 9.796875 -9.601562 9.628906 -10.003906 9.296875 -10.265625 C 8.960938 -10.535156 8.5 -10.671875 7.90625 -10.671875 Z M 6.015625 0 C 5.640625 0 5.332031 0.0976562 5.09375 0.296875 C 4.863281 0.503906 4.75 0.796875 4.75 1.171875 C 4.75 1.546875 4.867188 1.847656 5.109375 2.078125 C 5.359375 2.304688 5.660156 2.421875 6.015625 2.421875 L 9.84375 2.421875 C 10.195312 2.421875 10.5 2.3125 10.75 2.09375 C 11.007812 1.875 11.140625 1.578125 11.140625 1.203125 C 11.140625 0.828125 11.015625 0.53125 10.765625 0.3125 C 10.523438 0.101562 10.21875 0 9.84375 0 Z M 6.015625 0 "/></g></g></g><g fill="#ffffff" fill-opacity="1"><g transform="translate(66.867112, 50.846236)"><g><path d="M 1.640625 -14.453125 L 1.640625 -17.75 L 6.515625 -17.75 L 6.515625 -14.453125 Z M 1.640625 0 L 1.640625 -12.921875 L 6.515625 -12.921875 L 6.515625 0 Z M 1.640625 0 "/></g></g></g><g fill="#ffffff" fill-opacity="1"><g transform="translate(75.022726, 50.846236)"><g><path d="M 10.375 -13.21875 C 11.882812 -13.21875 13.015625 -12.800781 13.765625 -11.96875 C 14.515625 -11.132812 14.890625 -9.9375 14.890625 -8.375 L 14.890625 0 L 10.015625 0 L 10.015625 -7.78125 C 10.015625 -8.34375 9.867188 -8.789062 9.578125 -9.125 C 9.296875 -9.457031 8.894531 -9.625 8.375 -9.625 C 7.769531 -9.625 7.28125 -9.425781 6.90625 -9.03125 C 6.53125 -8.644531 6.34375 -8.164062 6.34375 -7.59375 L 6.34375 0 L 1.46875 0 L 1.46875 -12.921875 L 5.453125 -12.921875 L 5.78125 -10.96875 C 6.28125 -11.65625 6.941406 -12.203125 7.765625 -12.609375 C 8.597656 -13.015625 9.46875 -13.21875 10.375 -13.21875 Z M 10.375 -13.21875 "/></g></g></g><g fill="#ffffff" fill-opacity="1"><g transform="translate(91.358443, 50.846236)"><g><path d="M 7.859375 -13.21875 C 9.835938 -13.21875 11.445312 -12.882812 12.6875 -12.21875 C 13.925781 -11.5625 14.546875 -10.492188 14.546875 -9.015625 L 14.546875 -3.96875 C 14.546875 -3.6875 14.609375 -3.457031 14.734375 -3.28125 C 14.867188 -3.101562 15.066406 -3.015625 15.328125 -3.015625 L 16.203125 -3.015625 L 16.203125 -0.203125 C 16.160156 -0.160156 16.035156 -0.101562 15.828125 -0.03125 C 15.617188 0.0390625 15.328125 0.113281 14.953125 0.1875 C 14.578125 0.257812 14.144531 0.296875 13.65625 0.296875 C 12.71875 0.296875 11.941406 0.15625 11.328125 -0.125 C 10.710938 -0.414062 10.289062 -0.816406 10.0625 -1.328125 C 9.4375 -0.835938 8.738281 -0.441406 7.96875 -0.140625 C 7.207031 0.148438 6.3125 0.296875 5.28125 0.296875 C 2.25 0.296875 0.734375 -0.910156 0.734375 -3.328125 C 0.734375 -4.585938 1.070312 -5.546875 1.75 -6.203125 C 2.425781 -6.867188 3.398438 -7.320312 4.671875 -7.5625 C 5.953125 -7.8125 7.617188 -7.9375 9.671875 -7.9375 L 9.671875 -8.5625 C 9.671875 -9.070312 9.492188 -9.457031 9.140625 -9.71875 C 8.796875 -9.976562 8.34375 -10.109375 7.78125 -10.109375 C 7.28125 -10.109375 6.84375 -10.019531 6.46875 -9.84375 C 6.101562 -9.664062 5.921875 -9.378906 5.921875 -8.984375 L 5.921875 -8.890625 L 1.125 -8.890625 C 1.113281 -8.972656 1.109375 -9.085938 1.109375 -9.234375 C 1.109375 -10.453125 1.691406 -11.421875 2.859375 -12.140625 C 4.023438 -12.859375 5.691406 -13.21875 7.859375 -13.21875 Z M 9.671875 -5.625 C 8.285156 -5.625 7.257812 -5.472656 6.59375 -5.171875 C 5.9375 -4.867188 5.609375 -4.46875 5.609375 -3.96875 C 5.609375 -3.15625 6.160156 -2.75 7.265625 -2.75 C 7.910156 -2.75 8.472656 -2.914062 8.953125 -3.25 C 9.429688 -3.59375 9.671875 -4.019531 9.671875 -4.53125 Z M 9.671875 -5.625 "/></g></g></g><g fill="#ffffff" fill-opacity="1"><g transform="translate(107.694161, 50.846236)"><g><path d="M 10.09375 -12.921875 L 10.09375 -9.625 L 7.34375 -9.625 L 7.34375 -4.703125 C 7.34375 -4.109375 7.441406 -3.675781 7.640625 -3.40625 C 7.835938 -3.144531 8.195312 -3.015625 8.71875 -3.015625 L 10.09375 -3.015625 L 10.09375 -0.140625 C 9.695312 -0.015625 9.1875 0.0859375 8.5625 0.171875 C 7.945312 0.253906 7.410156 0.296875 6.953125 0.296875 C 5.515625 0.296875 4.40625 0.0351562 3.625 -0.484375 C 2.851562 -1.003906 2.46875 -1.894531 2.46875 -3.15625 L 2.46875 -9.625 L 0.65625 -9.625 L 0.65625 -12.921875 L 2.671875 -12.921875 L 3.71875 -16.84375 L 7.34375 -16.84375 L 7.34375 -12.921875 Z M 10.09375 -12.921875 "/></g></g></g><g fill="#ffffff" fill-opacity="1"><g transform="translate(118.568313, 50.846236)"><g><path d="M 1.640625 -14.453125 L 1.640625 -17.75 L 6.515625 -17.75 L 6.515625 -14.453125 Z M 1.640625 0 L 1.640625 -12.921875 L 6.515625 -12.921875 L 6.515625 0 Z M 1.640625 0 "/></g></g></g><g fill="#ffffff" fill-opacity="1"><g transform="translate(126.72392, 50.846236)"><g><path d="M 8.15625 -13.21875 C 10.425781 -13.21875 12.207031 -12.640625 13.5 -11.484375 C 14.800781 -10.335938 15.453125 -8.664062 15.453125 -6.46875 C 15.453125 -4.257812 14.800781 -2.578125 13.5 -1.421875 C 12.207031 -0.273438 10.425781 0.296875 8.15625 0.296875 C 5.882812 0.296875 4.101562 -0.273438 2.8125 -1.421875 C 1.519531 -2.566406 0.875 -4.25 0.875 -6.46875 C 0.875 -8.6875 1.519531 -10.363281 2.8125 -11.5 C 4.101562 -12.644531 5.882812 -13.21875 8.15625 -13.21875 Z M 8.15625 -9.921875 C 6.550781 -9.921875 5.75 -9 5.75 -7.15625 L 5.75 -5.75 C 5.75 -3.925781 6.550781 -3.015625 8.15625 -3.015625 C 9.769531 -3.015625 10.578125 -3.925781 10.578125 -5.75 L 10.578125 -7.15625 C 10.578125 -9 9.769531 -9.921875 8.15625 -9.921875 Z M 8.15625 -9.921875 "/></g></g></g><g fill="#ffffff" fill-opacity="1"><g transform="translate(143.059637, 50.846236)"><g><path d="M 10.375 -13.21875 C 11.882812 -13.21875 13.015625 -12.800781 13.765625 -11.96875 C 14.515625 -11.132812 14.890625 -9.9375 14.890625 -8.375 L 14.890625 0 L 10.015625 0 L 10.015625 -7.78125 C 10.015625 -8.34375 9.867188 -8.789062 9.578125 -9.125 C 9.296875 -9.457031 8.894531 -9.625 8.375 -9.625 C 7.769531 -9.625 7.28125 -9.425781 6.90625 -9.03125 C 6.53125 -8.644531 6.34375 -8.164062 6.34375 -7.59375 L 6.34375 0 L 1.46875 0 L 1.46875 -12.921875 L 5.453125 -12.921875 L 5.78125 -10.96875 C 6.28125 -11.65625 6.941406 -12.203125 7.765625 -12.609375 C 8.597656 -13.015625 9.46875 -13.21875 10.375 -13.21875 Z M 10.375 -13.21875 "/></g></g></g></g></g><g transform="matrix(1, 0, 0, 1, 60, 376)"><g clip-path="url(#e29b075fdb)"><g fill="#ffffff" fill-opacity="1"><g transform="translate(1.005337, 22.439809)"><g><path d="M 1.8125 -16.84375 L 16.375 -16.84375 L 16.375 -12.8125 L 7.21875 -12.8125 L 7.21875 -10.484375 L 15.0625 -10.484375 L 15.0625 -6.609375 L 7.21875 -6.609375 L 7.21875 -4.046875 L 16.546875 -4.046875 L 16.546875 0 L 1.8125 0 Z M 1.8125 -16.84375 "/></g></g></g><g fill="#ffffff" fill-opacity="1"><g transform="translate(18.688079, 22.439809)"><g><path d="M 18.625 -13.21875 C 20.101562 -13.21875 21.207031 -12.796875 21.9375 -11.953125 C 22.675781 -11.117188 23.046875 -9.925781 23.046875 -8.375 L 23.046875 0 L 18.171875 0 L 18.171875 -7.78125 C 18.171875 -8.34375 18.035156 -8.789062 17.765625 -9.125 C 17.492188 -9.457031 17.113281 -9.625 16.625 -9.625 C 16.050781 -9.625 15.582031 -9.425781 15.21875 -9.03125 C 14.863281 -8.644531 14.6875 -8.164062 14.6875 -7.59375 L 14.6875 0 L 9.8125 0 L 9.8125 -7.78125 C 9.8125 -8.34375 9.675781 -8.789062 9.40625 -9.125 C 9.144531 -9.457031 8.769531 -9.625 8.28125 -9.625 C 7.707031 -9.625 7.238281 -9.425781 6.875 -9.03125 C 6.519531 -8.644531 6.34375 -8.164062 6.34375 -7.59375 L 6.34375 0 L 1.46875 0 L 1.46875 -12.921875 L 5.453125 -12.921875 L 5.78125 -11 C 6.269531 -11.675781 6.914062 -12.210938 7.71875 -12.609375 C 8.53125 -13.015625 9.382812 -13.21875 10.28125 -13.21875 C 12.226562 -13.21875 13.535156 -12.476562 14.203125 -11 C 14.703125 -11.675781 15.347656 -12.210938 16.140625 -12.609375 C 16.929688 -13.015625 17.757812 -13.21875 18.625 -13.21875 Z M 18.625 -13.21875 "/></g></g><g transform="translate(43.179416, 22.439809)"><g><path d="M 6.359375 -11.734375 C 7.296875 -12.722656 8.503906 -13.21875 9.984375 -13.21875 C 11.734375 -13.21875 13.082031 -12.648438 14.03125 -11.515625 C 14.976562 -10.378906 15.453125 -8.703125 15.453125 -6.484375 C 15.453125 -4.253906 14.976562 -2.566406 14.03125 -1.421875 C 13.082031 -0.273438 11.734375 0.296875 9.984375 0.296875 C 8.191406 0.296875 6.820312 -0.414062 5.875 -1.84375 L 5.453125 0 L 1.5 0 L 1.5 -17.75 L 6.359375 -17.75 Z M 8.46875 -9.625 C 7.75 -9.625 7.207031 -9.363281 6.84375 -8.84375 C 6.488281 -8.332031 6.3125 -7.671875 6.3125 -6.859375 L 6.3125 -6.046875 C 6.3125 -5.234375 6.488281 -4.570312 6.84375 -4.0625 C 7.207031 -3.5625 7.75 -3.3125 8.46875 -3.3125 C 9.875 -3.3125 10.578125 -4.140625 10.578125 -5.796875 L 10.578125 -7.09375 C 10.578125 -8.78125 9.875 -9.625 8.46875 -9.625 Z M 8.46875 -9.625 "/></g></g></g><g fill="#ffffff" fill-opacity="1"><g transform="translate(59.515134, 22.439809)"><g><path d="M 8.15625 -13.21875 C 10.425781 -13.21875 12.207031 -12.640625 13.5 -11.484375 C 14.800781 -10.335938 15.453125 -8.664062 15.453125 -6.46875 C 15.453125 -4.257812 14.800781 -2.578125 13.5 -1.421875 C 12.207031 -0.273438 10.425781 0.296875 8.15625 0.296875 C 5.882812 0.296875 4.101562 -0.273438 2.8125 -1.421875 C 1.519531 -2.566406 0.875 -4.25 0.875 -6.46875 C 0.875 -8.6875 1.519531 -10.363281 2.8125 -11.5 C 4.101562 -12.644531 5.882812 -13.21875 8.15625 -13.21875 Z M 8.15625 -9.921875 C 6.550781 -9.921875 5.75 -9 5.75 -7.15625 L 5.75 -5.75 C 5.75 -3.925781 6.550781 -3.015625 8.15625 -3.015625 C 9.769531 -3.015625 10.578125 -3.925781 10.578125 -5.75 L 10.578125 -7.15625 C 10.578125 -9 9.769531 -9.921875 8.15625 -9.921875 Z M 8.15625 -9.921875 "/></g></g></g><g fill="#ffffff" fill-opacity="1"><g transform="translate(75.850851, 22.439809)"><g><path d="M 10.875 0 L 10.453125 -1.84375 C 9.503906 -0.414062 8.132812 0.296875 6.34375 0.296875 C 4.59375 0.296875 3.242188 -0.273438 2.296875 -1.421875 C 1.347656 -2.566406 0.875 -4.253906 0.875 -6.484375 C 0.875 -8.703125 1.347656 -10.378906 2.296875 -11.515625 C 3.242188 -12.648438 4.59375 -13.21875 6.34375 -13.21875 C 7.820312 -13.21875 9.03125 -12.722656 9.96875 -11.734375 L 9.96875 -17.75 L 14.84375 -17.75 L 14.84375 0 Z M 7.859375 -9.625 C 6.453125 -9.625 5.75 -8.78125 5.75 -7.09375 L 5.75 -5.796875 C 5.75 -4.140625 6.453125 -3.3125 7.859375 -3.3125 C 8.578125 -3.3125 9.113281 -3.5625 9.46875 -4.0625 C 9.832031 -4.570312 10.015625 -5.234375 10.015625 -6.046875 L 10.015625 -6.859375 C 10.015625 -7.671875 9.832031 -8.332031 9.46875 -8.84375 C 9.113281 -9.363281 8.578125 -9.625 7.859375 -9.625 Z M 7.859375 -9.625 "/></g></g></g><g fill="#ffffff" fill-opacity="1"><g transform="translate(92.186569, 22.439809)"><g><path d="M 1.640625 -14.453125 L 1.640625 -17.75 L 6.515625 -17.75 L 6.515625 -14.453125 Z M 1.640625 0 L 1.640625 -12.921875 L 6.515625 -12.921875 L 6.515625 0 Z M 1.640625 0 "/></g></g></g><g fill="#ffffff" fill-opacity="1"><g transform="translate(100.342182, 22.439809)"><g><path d="M 8.15625 -13.21875 C 10.519531 -13.21875 12.328125 -12.660156 13.578125 -11.546875 C 14.828125 -10.441406 15.453125 -8.75 15.453125 -6.46875 L 15.453125 -5.625 L 5.75 -5.625 C 5.75 -4.695312 5.957031 -3.992188 6.375 -3.515625 C 6.789062 -3.046875 7.445312 -2.8125 8.34375 -2.8125 C 9.164062 -2.8125 9.765625 -2.984375 10.140625 -3.328125 C 10.523438 -3.671875 10.71875 -4.128906 10.71875 -4.703125 L 15.453125 -4.703125 C 15.453125 -3.128906 14.851562 -1.898438 13.65625 -1.015625 C 12.46875 -0.140625 10.734375 0.296875 8.453125 0.296875 C 6.046875 0.296875 4.179688 -0.257812 2.859375 -1.375 C 1.535156 -2.5 0.875 -4.195312 0.875 -6.46875 C 0.875 -8.6875 1.519531 -10.363281 2.8125 -11.5 C 4.101562 -12.644531 5.882812 -13.21875 8.15625 -13.21875 Z M 8.34375 -10.109375 C 6.8125 -10.109375 5.957031 -9.382812 5.78125 -7.9375 L 10.53125 -7.9375 C 10.53125 -8.601562 10.335938 -9.128906 9.953125 -9.515625 C 9.566406 -9.910156 9.03125 -10.109375 8.34375 -10.109375 Z M 8.34375 -10.109375 "/></g></g></g><g fill="#ffffff" fill-opacity="1"><g transform="translate(116.677899, 22.439809)"><g><path d="M 10.875 0 L 10.453125 -1.84375 C 9.503906 -0.414062 8.132812 0.296875 6.34375 0.296875 C 4.59375 0.296875 3.242188 -0.273438 2.296875 -1.421875 C 1.347656 -2.566406 0.875 -4.253906 0.875 -6.484375 C 0.875 -8.703125 1.347656 -10.378906 2.296875 -11.515625 C 3.242188 -12.648438 4.59375 -13.21875 6.34375 -13.21875 C 7.820312 -13.21875 9.03125 -12.722656 9.96875 -11.734375 L 9.96875 -17.75 L 14.84375 -17.75 L 14.84375 0 Z M 7.859375 -9.625 C 6.453125 -9.625 5.75 -8.78125 5.75 -7.09375 L 5.75 -5.796875 C 5.75 -4.140625 6.453125 -3.3125 7.859375 -3.3125 C 8.578125 -3.3125 9.113281 -3.5625 9.46875 -4.0625 C 9.832031 -4.570312 10.015625 -5.234375 10.015625 -6.046875 L 10.015625 -6.859375 C 10.015625 -7.671875 9.832031 -8.332031 9.46875 -8.84375 C 9.113281 -9.363281 8.578125 -9.625 7.859375 -9.625 Z M 7.859375 -9.625 "/></g></g></g><g fill="#ffffff" fill-opacity="1"><g transform="translate(38.439362, 51.741944)"><g><path d="M 11.265625 -16.84375 C 12.304688 -16.84375 13.234375 -16.601562 14.046875 -16.125 C 14.867188 -15.644531 15.507812 -14.984375 15.96875 -14.140625 C 16.425781 -13.296875 16.65625 -12.351562 16.65625 -11.3125 L 16.65625 -11 C 16.65625 -9.945312 16.425781 -8.992188 15.96875 -8.140625 C 15.507812 -7.296875 14.867188 -6.632812 14.046875 -6.15625 C 13.234375 -5.675781 12.304688 -5.4375 11.265625 -5.4375 L 7.21875 -5.4375 L 7.21875 0 L 1.8125 0 L 1.8125 -16.84375 Z M 7.21875 -9.375 L 9.453125 -9.375 C 10.023438 -9.375 10.453125 -9.519531 10.734375 -9.8125 C 11.023438 -10.113281 11.171875 -10.515625 11.171875 -11.015625 L 11.171875 -11.21875 C 11.171875 -11.738281 11.023438 -12.140625 10.734375 -12.421875 C 10.453125 -12.710938 10.023438 -12.859375 9.453125 -12.859375 L 7.21875 -12.859375 Z M 7.21875 -9.375 "/></g></g></g><g fill="#ffffff" fill-opacity="1"><g transform="translate(56.122104, 51.741944)"><g><path d="M 1.640625 0 L 1.640625 -17.75 L 6.515625 -17.75 L 6.515625 0 Z M 1.640625 0 "/></g></g></g><g fill="#ffffff" fill-opacity="1"><g transform="translate(64.277717, 51.741944)"><g><path d="M 7.859375 -13.21875 C 9.835938 -13.21875 11.445312 -12.882812 12.6875 -12.21875 C 13.925781 -11.5625 14.546875 -10.492188 14.546875 -9.015625 L 14.546875 -3.96875 C 14.546875 -3.6875 14.609375 -3.457031 14.734375 -3.28125 C 14.867188 -3.101562 15.066406 -3.015625 15.328125 -3.015625 L 16.203125 -3.015625 L 16.203125 -0.203125 C 16.160156 -0.160156 16.035156 -0.101562 15.828125 -0.03125 C 15.617188 0.0390625 15.328125 0.113281 14.953125 0.1875 C 14.578125 0.257812 14.144531 0.296875 13.65625 0.296875 C 12.71875 0.296875 11.941406 0.15625 11.328125 -0.125 C 10.710938 -0.414062 10.289062 -0.816406 10.0625 -1.328125 C 9.4375 -0.835938 8.738281 -0.441406 7.96875 -0.140625 C 7.207031 0.148438 6.3125 0.296875 5.28125 0.296875 C 2.25 0.296875 0.734375 -0.910156 0.734375 -3.328125 C 0.734375 -4.585938 1.070312 -5.546875 1.75 -6.203125 C 2.425781 -6.867188 3.398438 -7.320312 4.671875 -7.5625 C 5.953125 -7.8125 7.617188 -7.9375 9.671875 -7.9375 L 9.671875 -8.5625 C 9.671875 -9.070312 9.492188 -9.457031 9.140625 -9.71875 C 8.796875 -9.976562 8.34375 -10.109375 7.78125 -10.109375 C 7.28125 -10.109375 6.84375 -10.019531 6.46875 -9.84375 C 6.101562 -9.664062 5.921875 -9.378906 5.921875 -8.984375 L 5.921875 -8.890625 L 1.125 -8.890625 C 1.113281 -8.972656 1.109375 -9.085938 1.109375 -9.234375 C 1.109375 -10.453125 1.691406 -11.421875 2.859375 -12.140625 C 4.023438 -12.859375 5.691406 -13.21875 7.859375 -13.21875 Z M 9.671875 -5.625 C 8.285156 -5.625 7.257812 -5.472656 6.59375 -5.171875 C 5.9375 -4.867188 5.609375 -4.46875 5.609375 -3.96875 C 5.609375 -3.15625 6.160156 -2.75 7.265625 -2.75 C 7.910156 -2.75 8.472656 -2.914062 8.953125 -3.25 C 9.429688 -3.59375 9.671875 -4.019531 9.671875 -4.53125 Z M 9.671875 -5.625 "/></g></g></g><g fill="#ffffff" fill-opacity="1"><g transform="translate(80.613435, 51.741944)"><g><path d="M 10.359375 -0.390625 C 9.691406 1.421875 8.867188 2.796875 7.890625 3.734375 C 6.921875 4.671875 5.5625 5.140625 3.8125 5.140625 C 2.757812 5.140625 1.820312 4.992188 1 4.703125 L 1 1.78125 L 2.96875 1.78125 C 4.1875 1.78125 4.910156 1.1875 5.140625 0 L 0 -12.921875 L 5.234375 -12.921875 L 7.71875 -4.328125 L 7.890625 -4.328125 L 10.15625 -12.921875 L 14.953125 -12.921875 Z M 10.359375 -0.390625 "/></g></g></g></g></g><g transform="matrix(1, 0, 0, 1, 317, 678)"><g clip-path="url(#634ff0faa8)"><g fill="#ffffff" fill-opacity="1"><g transform="translate(0.0975926, 22.173993)"><g><path d="M 9.84375 -17.140625 C 12.34375 -17.140625 14.316406 -16.515625 15.765625 -15.265625 C 17.222656 -14.015625 17.953125 -12.234375 17.953125 -9.921875 L 12.78125 -9.921875 C 12.78125 -10.898438 12.519531 -11.671875 12 -12.234375 C 11.488281 -12.804688 10.757812 -13.09375 9.8125 -13.09375 C 8.71875 -13.09375 7.914062 -12.75 7.40625 -12.0625 C 6.894531 -11.382812 6.640625 -10.429688 6.640625 -9.203125 L 6.640625 -7.640625 C 6.640625 -6.429688 6.894531 -5.476562 7.40625 -4.78125 C 7.914062 -4.09375 8.703125 -3.75 9.765625 -3.75 C 10.816406 -3.75 11.609375 -4.015625 12.140625 -4.546875 C 12.679688 -5.085938 12.953125 -5.847656 12.953125 -6.828125 L 17.953125 -6.828125 C 17.953125 -4.523438 17.242188 -2.757812 15.828125 -1.53125 C 14.421875 -0.3125 12.425781 0.296875 9.84375 0.296875 C 6.96875 0.296875 4.789062 -0.4375 3.3125 -1.90625 C 1.84375 -3.375 1.109375 -5.546875 1.109375 -8.421875 C 1.109375 -11.296875 1.84375 -13.46875 3.3125 -14.9375 C 4.789062 -16.40625 6.96875 -17.140625 9.84375 -17.140625 Z M 9.84375 -17.140625 "/></g></g></g><g fill="#ffffff" fill-opacity="1"><g transform="translate(19.15185, 22.173993)"><g><path d="M 8.15625 -13.21875 C 10.425781 -13.21875 12.207031 -12.640625 13.5 -11.484375 C 14.800781 -10.335938 15.453125 -8.664062 15.453125 -6.46875 C 15.453125 -4.257812 14.800781 -2.578125 13.5 -1.421875 C 12.207031 -0.273438 10.425781 0.296875 8.15625 0.296875 C 5.882812 0.296875 4.101562 -0.273438 2.8125 -1.421875 C 1.519531 -2.566406 0.875 -4.25 0.875 -6.46875 C 0.875 -8.6875 1.519531 -10.363281 2.8125 -11.5 C 4.101562 -12.644531 5.882812 -13.21875 8.15625 -13.21875 Z M 8.15625 -9.921875 C 6.550781 -9.921875 5.75 -9 5.75 -7.15625 L 5.75 -5.75 C 5.75 -3.925781 6.550781 -3.015625 8.15625 -3.015625 C 9.769531 -3.015625 10.578125 -3.925781 10.578125 -5.75 L 10.578125 -7.15625 C 10.578125 -9 9.769531 -9.921875 8.15625 -9.921875 Z M 8.15625 -9.921875 "/></g></g></g><g fill="#ffffff" fill-opacity="1"><g transform="translate(35.487567, 22.173993)"><g><path d="M 18.625 -13.21875 C 20.101562 -13.21875 21.207031 -12.796875 21.9375 -11.953125 C 22.675781 -11.117188 23.046875 -9.925781 23.046875 -8.375 L 23.046875 0 L 18.171875 0 L 18.171875 -7.78125 C 18.171875 -8.34375 18.035156 -8.789062 17.765625 -9.125 C 17.492188 -9.457031 17.113281 -9.625 16.625 -9.625 C 16.050781 -9.625 15.582031 -9.425781 15.21875 -9.03125 C 14.863281 -8.644531 14.6875 -8.164062 14.6875 -7.59375 L 14.6875 0 L 9.8125 0 L 9.8125 -7.78125 C 9.8125 -8.34375 9.675781 -8.789062 9.40625 -9.125 C 9.144531 -9.457031 8.769531 -9.625 8.28125 -9.625 C 7.707031 -9.625 7.238281 -9.425781 6.875 -9.03125 C 6.519531 -8.644531 6.34375 -8.164062 6.34375 -7.59375 L 6.34375 0 L 1.46875 0 L 1.46875 -12.921875 L 5.453125 -12.921875 L 5.78125 -11 C 6.269531 -11.675781 6.914062 -12.210938 7.71875 -12.609375 C 8.53125 -13.015625 9.382812 -13.21875 10.28125 -13.21875 C 12.226562 -13.21875 13.535156 -12.476562 14.203125 -11 C 14.703125 -11.675781 15.347656 -12.210938 16.140625 -12.609375 C 16.929688 -13.015625 17.757812 -13.21875 18.625 -13.21875 Z M 18.625 -13.21875 "/></g></g><g transform="translate(59.978904, 22.173993)"><g><path d="M 18.625 -13.21875 C 20.101562 -13.21875 21.207031 -12.796875 21.9375 -11.953125 C 22.675781 -11.117188 23.046875 -9.925781 23.046875 -8.375 L 23.046875 0 L 18.171875 0 L 18.171875 -7.78125 C 18.171875 -8.34375 18.035156 -8.789062 17.765625 -9.125 C 17.492188 -9.457031 17.113281 -9.625 16.625 -9.625 C 16.050781 -9.625 15.582031 -9.425781 15.21875 -9.03125 C 14.863281 -8.644531 14.6875 -8.164062 14.6875 -7.59375 L 14.6875 0 L 9.8125 0 L 9.8125 -7.78125 C 9.8125 -8.34375 9.675781 -8.789062 9.40625 -9.125 C 9.144531 -9.457031 8.769531 -9.625 8.28125 -9.625 C 7.707031 -9.625 7.238281 -9.425781 6.875 -9.03125 C 6.519531 -8.644531 6.34375 -8.164062 6.34375 -7.59375 L 6.34375 0 L 1.46875 0 L 1.46875 -12.921875 L 5.453125 -12.921875 L 5.78125 -11 C 6.269531 -11.675781 6.914062 -12.210938 7.71875 -12.609375 C 8.53125 -13.015625 9.382812 -13.21875 10.28125 -13.21875 C 12.226562 -13.21875 13.535156 -12.476562 14.203125 -11 C 14.703125 -11.675781 15.347656 -12.210938 16.140625 -12.609375 C 16.929688 -13.015625 17.757812 -13.21875 18.625 -13.21875 Z M 18.625 -13.21875 "/></g></g><g transform="translate(84.470242, 22.173993)"><g><path d="M 10.84375 0 L 10.53125 -1.953125 C 10.019531 -1.253906 9.351562 -0.703125 8.53125 -0.296875 C 7.707031 0.0976562 6.835938 0.296875 5.921875 0.296875 C 4.421875 0.296875 3.296875 -0.117188 2.546875 -0.953125 C 1.796875 -1.785156 1.421875 -2.984375 1.421875 -4.546875 L 1.421875 -12.921875 L 6.296875 -12.921875 L 6.296875 -5.140625 C 6.296875 -4.585938 6.4375 -4.144531 6.71875 -3.8125 C 7.007812 -3.476562 7.414062 -3.3125 7.9375 -3.3125 C 8.539062 -3.3125 9.03125 -3.503906 9.40625 -3.890625 C 9.78125 -4.285156 9.96875 -4.769531 9.96875 -5.34375 L 9.96875 -12.921875 L 14.84375 -12.921875 L 14.84375 0 Z M 10.84375 0 "/></g></g></g><g fill="#ffffff" fill-opacity="1"><g transform="translate(100.805959, 22.173993)"><g><path d="M 10.375 -13.21875 C 11.882812 -13.21875 13.015625 -12.800781 13.765625 -11.96875 C 14.515625 -11.132812 14.890625 -9.9375 14.890625 -8.375 L 14.890625 0 L 10.015625 0 L 10.015625 -7.78125 C 10.015625 -8.34375 9.867188 -8.789062 9.578125 -9.125 C 9.296875 -9.457031 8.894531 -9.625 8.375 -9.625 C 7.769531 -9.625 7.28125 -9.425781 6.90625 -9.03125 C 6.53125 -8.644531 6.34375 -8.164062 6.34375 -7.59375 L 6.34375 0 L 1.46875 0 L 1.46875 -12.921875 L 5.453125 -12.921875 L 5.78125 -10.96875 C 6.28125 -11.65625 6.941406 -12.203125 7.765625 -12.609375 C 8.597656 -13.015625 9.46875 -13.21875 10.375 -13.21875 Z M 10.375 -13.21875 "/></g></g></g><g fill="#ffffff" fill-opacity="1"><g transform="translate(117.141677, 22.173993)"><g><path d="M 1.640625 -14.453125 L 1.640625 -17.75 L 6.515625 -17.75 L 6.515625 -14.453125 Z M 1.640625 0 L 1.640625 -12.921875 L 6.515625 -12.921875 L 6.515625 0 Z M 1.640625 0 "/></g></g></g><g fill="#ffffff" fill-opacity="1"><g transform="translate(125.297296, 22.173993)"><g><path d="M 10.09375 -12.921875 L 10.09375 -9.625 L 7.34375 -9.625 L 7.34375 -4.703125 C 7.34375 -4.109375 7.441406 -3.675781 7.640625 -3.40625 C 7.835938 -3.144531 8.195312 -3.015625 8.71875 -3.015625 L 10.09375 -3.015625 L 10.09375 -0.140625 C 9.695312 -0.015625 9.1875 0.0859375 8.5625 0.171875 C 7.945312 0.253906 7.410156 0.296875 6.953125 0.296875 C 5.515625 0.296875 4.40625 0.0351562 3.625 -0.484375 C 2.851562 -1.003906 2.46875 -1.894531 2.46875 -3.15625 L 2.46875 -9.625 L 0.65625 -9.625 L 0.65625 -12.921875 L 2.671875 -12.921875 L 3.71875 -16.84375 L 7.34375 -16.84375 L 7.34375 -12.921875 Z M 10.09375 -12.921875 "/></g></g></g><g fill="#ffffff" fill-opacity="1"><g transform="translate(136.171442, 22.173993)"><g><path d="M 7.859375 -13.21875 C 9.835938 -13.21875 11.445312 -12.882812 12.6875 -12.21875 C 13.925781 -11.5625 14.546875 -10.492188 14.546875 -9.015625 L 14.546875 -3.96875 C 14.546875 -3.6875 14.609375 -3.457031 14.734375 -3.28125 C 14.867188 -3.101562 15.066406 -3.015625 15.328125 -3.015625 L 16.203125 -3.015625 L 16.203125 -0.203125 C 16.160156 -0.160156 16.035156 -0.101562 15.828125 -0.03125 C 15.617188 0.0390625 15.328125 0.113281 14.953125 0.1875 C 14.578125 0.257812 14.144531 0.296875 13.65625 0.296875 C 12.71875 0.296875 11.941406 0.15625 11.328125 -0.125 C 10.710938 -0.414062 10.289062 -0.816406 10.0625 -1.328125 C 9.4375 -0.835938 8.738281 -0.441406 7.96875 -0.140625 C 7.207031 0.148438 6.3125 0.296875 5.28125 0.296875 C 2.25 0.296875 0.734375 -0.910156 0.734375 -3.328125 C 0.734375 -4.585938 1.070312 -5.546875 1.75 -6.203125 C 2.425781 -6.867188 3.398438 -7.320312 4.671875 -7.5625 C 5.953125 -7.8125 7.617188 -7.9375 9.671875 -7.9375 L 9.671875 -8.5625 C 9.671875 -9.070312 9.492188 -9.457031 9.140625 -9.71875 C 8.796875 -9.976562 8.34375 -10.109375 7.78125 -10.109375 C 7.28125 -10.109375 6.84375 -10.019531 6.46875 -9.84375 C 6.101562 -9.664062 5.921875 -9.378906 5.921875 -8.984375 L 5.921875 -8.890625 L 1.125 -8.890625 C 1.113281 -8.972656 1.109375 -9.085938 1.109375 -9.234375 C 1.109375 -10.453125 1.691406 -11.421875 2.859375 -12.140625 C 4.023438 -12.859375 5.691406 -13.21875 7.859375 -13.21875 Z M 9.671875 -5.625 C 8.285156 -5.625 7.257812 -5.472656 6.59375 -5.171875 C 5.9375 -4.867188 5.609375 -4.46875 5.609375 -3.96875 C 5.609375 -3.15625 6.160156 -2.75 7.265625 -2.75 C 7.910156 -2.75 8.472656 -2.914062 8.953125 -3.25 C 9.429688 -3.59375 9.671875 -4.019531 9.671875 -4.53125 Z M 9.671875 -5.625 "/></g></g></g><g fill="#ffffff" fill-opacity="1"><g transform="translate(152.50716, 22.173993)"><g><path d="M 7.609375 -13.21875 C 9.335938 -13.21875 10.800781 -12.878906 12 -12.203125 C 13.207031 -11.523438 13.8125 -10.476562 13.8125 -9.0625 L 9.28125 -9.0625 C 9.28125 -9.53125 9.066406 -9.863281 8.640625 -10.0625 C 8.347656 -10.226562 7.984375 -10.3125 7.546875 -10.3125 C 6.367188 -10.3125 5.78125 -10.03125 5.78125 -9.46875 C 5.78125 -9.164062 5.984375 -8.945312 6.390625 -8.8125 C 6.796875 -8.6875 7.460938 -8.546875 8.390625 -8.390625 C 9.535156 -8.234375 10.488281 -8.046875 11.25 -7.828125 C 12.019531 -7.609375 12.691406 -7.210938 13.265625 -6.640625 C 13.835938 -6.078125 14.125 -5.289062 14.125 -4.28125 C 14.125 -2.632812 13.507812 -1.457031 12.28125 -0.75 C 11.050781 -0.0507812 9.4375 0.296875 7.4375 0.296875 C 6.300781 0.296875 5.222656 0.140625 4.203125 -0.171875 C 3.191406 -0.492188 2.367188 -0.988281 1.734375 -1.65625 C 1.097656 -2.332031 0.78125 -3.1875 0.78125 -4.21875 L 5.3125 -4.21875 L 5.3125 -4.109375 C 5.332031 -3.554688 5.566406 -3.171875 6.015625 -2.953125 C 6.460938 -2.734375 6.9375 -2.625 7.4375 -2.625 C 8.789062 -2.625 9.46875 -2.941406 9.46875 -3.578125 C 9.46875 -3.898438 9.253906 -4.132812 8.828125 -4.28125 C 8.410156 -4.425781 7.71875 -4.582031 6.75 -4.75 C 5.59375 -4.945312 4.644531 -5.160156 3.90625 -5.390625 C 3.164062 -5.617188 2.515625 -6.003906 1.953125 -6.546875 C 1.398438 -7.097656 1.125 -7.863281 1.125 -8.84375 C 1.125 -10.425781 1.722656 -11.550781 2.921875 -12.21875 C 4.117188 -12.882812 5.679688 -13.21875 7.609375 -13.21875 Z M 7.609375 -13.21875 "/></g></g></g></g></g><g transform="matrix(1, 0, 0, 1, 632, 376)"><g clip-path="url(#550dace65b)"><g fill="#ffffff" fill-opacity="1"><g transform="translate(0.630047, 22.439809)"><g><path d="M 17.796875 -11.671875 C 17.796875 -10.648438 17.519531 -9.722656 16.96875 -8.890625 C 16.414062 -8.054688 15.609375 -7.441406 14.546875 -7.046875 L 18.296875 0 L 12.21875 0 L 9.234375 -6.140625 L 7.21875 -6.140625 L 7.21875 0 L 1.8125 0 L 1.8125 -16.84375 L 12.125 -16.84375 C 13.332031 -16.84375 14.363281 -16.609375 15.21875 -16.140625 C 16.070312 -15.679688 16.710938 -15.054688 17.140625 -14.265625 C 17.578125 -13.472656 17.796875 -12.609375 17.796875 -11.671875 Z M 12.296875 -11.453125 C 12.296875 -11.898438 12.144531 -12.269531 11.84375 -12.5625 C 11.550781 -12.851562 11.191406 -13 10.765625 -13 L 7.21875 -13 L 7.21875 -9.890625 L 10.765625 -9.890625 C 11.191406 -9.890625 11.550781 -10.039062 11.84375 -10.34375 C 12.144531 -10.644531 12.296875 -11.015625 12.296875 -11.453125 Z M 12.296875 -11.453125 "/></g></g></g><g fill="#ffffff" fill-opacity="1"><g transform="translate(19.684305, 22.439809)"><g><path d="M 7.859375 -13.21875 C 9.835938 -13.21875 11.445312 -12.882812 12.6875 -12.21875 C 13.925781 -11.5625 14.546875 -10.492188 14.546875 -9.015625 L 14.546875 -3.96875 C 14.546875 -3.6875 14.609375 -3.457031 14.734375 -3.28125 C 14.867188 -3.101562 15.066406 -3.015625 15.328125 -3.015625 L 16.203125 -3.015625 L 16.203125 -0.203125 C 16.160156 -0.160156 16.035156 -0.101562 15.828125 -0.03125 C 15.617188 0.0390625 15.328125 0.113281 14.953125 0.1875 C 14.578125 0.257812 14.144531 0.296875 13.65625 0.296875 C 12.71875 0.296875 11.941406 0.15625 11.328125 -0.125 C 10.710938 -0.414062 10.289062 -0.816406 10.0625 -1.328125 C 9.4375 -0.835938 8.738281 -0.441406 7.96875 -0.140625 C 7.207031 0.148438 6.3125 0.296875 5.28125 0.296875 C 2.25 0.296875 0.734375 -0.910156 0.734375 -3.328125 C 0.734375 -4.585938 1.070312 -5.546875 1.75 -6.203125 C 2.425781 -6.867188 3.398438 -7.320312 4.671875 -7.5625 C 5.953125 -7.8125 7.617188 -7.9375 9.671875 -7.9375 L 9.671875 -8.5625 C 9.671875 -9.070312 9.492188 -9.457031 9.140625 -9.71875 C 8.796875 -9.976562 8.34375 -10.109375 7.78125 -10.109375 C 7.28125 -10.109375 6.84375 -10.019531 6.46875 -9.84375 C 6.101562 -9.664062 5.921875 -9.378906 5.921875 -8.984375 L 5.921875 -8.890625 L 1.125 -8.890625 C 1.113281 -8.972656 1.109375 -9.085938 1.109375 -9.234375 C 1.109375 -10.453125 1.691406 -11.421875 2.859375 -12.140625 C 4.023438 -12.859375 5.691406 -13.21875 7.859375 -13.21875 Z M 9.671875 -5.625 C 8.285156 -5.625 7.257812 -5.472656 6.59375 -5.171875 C 5.9375 -4.867188 5.609375 -4.46875 5.609375 -3.96875 C 5.609375 -3.15625 6.160156 -2.75 7.265625 -2.75 C 7.910156 -2.75 8.472656 -2.914062 8.953125 -3.25 C 9.429688 -3.59375 9.671875 -4.019531 9.671875 -4.53125 Z M 9.671875 -5.625 "/></g></g></g><g fill="#ffffff" fill-opacity="1"><g transform="translate(36.020022, 22.439809)"><g><path d="M 10.875 0 L 10.453125 -1.84375 C 9.503906 -0.414062 8.132812 0.296875 6.34375 0.296875 C 4.59375 0.296875 3.242188 -0.273438 2.296875 -1.421875 C 1.347656 -2.566406 0.875 -4.253906 0.875 -6.484375 C 0.875 -8.703125 1.347656 -10.378906 2.296875 -11.515625 C 3.242188 -12.648438 4.59375 -13.21875 6.34375 -13.21875 C 7.820312 -13.21875 9.03125 -12.722656 9.96875 -11.734375 L 9.96875 -17.75 L 14.84375 -17.75 L 14.84375 0 Z M 7.859375 -9.625 C 6.453125 -9.625 5.75 -8.78125 5.75 -7.09375 L 5.75 -5.796875 C 5.75 -4.140625 6.453125 -3.3125 7.859375 -3.3125 C 8.578125 -3.3125 9.113281 -3.5625 9.46875 -4.0625 C 9.832031 -4.570312 10.015625 -5.234375 10.015625 -6.046875 L 10.015625 -6.859375 C 10.015625 -7.671875 9.832031 -8.332031 9.46875 -8.84375 C 9.113281 -9.363281 8.578125 -9.625 7.859375 -9.625 Z M 7.859375 -9.625 "/></g></g></g><g fill="#ffffff" fill-opacity="1"><g transform="translate(52.35574, 22.439809)"><g><path d="M 1.640625 -14.453125 L 1.640625 -17.75 L 6.515625 -17.75 L 6.515625 -14.453125 Z M 1.640625 0 L 1.640625 -12.921875 L 6.515625 -12.921875 L 6.515625 0 Z M 1.640625 0 "/></g></g></g><g fill="#ffffff" fill-opacity="1"><g transform="translate(60.511353, 22.439809)"><g><path d="M 8.15625 -13.21875 C 10.28125 -13.21875 12 -12.765625 13.3125 -11.859375 C 14.625 -10.953125 15.28125 -9.570312 15.28125 -7.71875 L 10.546875 -7.71875 C 10.546875 -9.1875 9.75 -9.921875 8.15625 -9.921875 C 6.550781 -9.921875 5.75 -9 5.75 -7.15625 L 5.75 -5.75 C 5.75 -3.925781 6.582031 -3.015625 8.25 -3.015625 C 9.914062 -3.015625 10.75 -3.765625 10.75 -5.265625 L 15.28125 -5.265625 C 15.28125 -3.390625 14.625 -1.992188 13.3125 -1.078125 C 12 -0.160156 10.28125 0.296875 8.15625 0.296875 C 5.882812 0.296875 4.101562 -0.273438 2.8125 -1.421875 C 1.519531 -2.566406 0.875 -4.25 0.875 -6.46875 C 0.875 -8.6875 1.519531 -10.363281 2.8125 -11.5 C 4.101562 -12.644531 5.882812 -13.21875 8.15625 -13.21875 Z M 8.15625 -13.21875 "/></g></g></g><g fill="#ffffff" fill-opacity="1"><g transform="translate(76.84707, 22.439809)"><g><path d="M 7.859375 -13.21875 C 9.835938 -13.21875 11.445312 -12.882812 12.6875 -12.21875 C 13.925781 -11.5625 14.546875 -10.492188 14.546875 -9.015625 L 14.546875 -3.96875 C 14.546875 -3.6875 14.609375 -3.457031 14.734375 -3.28125 C 14.867188 -3.101562 15.066406 -3.015625 15.328125 -3.015625 L 16.203125 -3.015625 L 16.203125 -0.203125 C 16.160156 -0.160156 16.035156 -0.101562 15.828125 -0.03125 C 15.617188 0.0390625 15.328125 0.113281 14.953125 0.1875 C 14.578125 0.257812 14.144531 0.296875 13.65625 0.296875 C 12.71875 0.296875 11.941406 0.15625 11.328125 -0.125 C 10.710938 -0.414062 10.289062 -0.816406 10.0625 -1.328125 C 9.4375 -0.835938 8.738281 -0.441406 7.96875 -0.140625 C 7.207031 0.148438 6.3125 0.296875 5.28125 0.296875 C 2.25 0.296875 0.734375 -0.910156 0.734375 -3.328125 C 0.734375 -4.585938 1.070312 -5.546875 1.75 -6.203125 C 2.425781 -6.867188 3.398438 -7.320312 4.671875 -7.5625 C 5.953125 -7.8125 7.617188 -7.9375 9.671875 -7.9375 L 9.671875 -8.5625 C 9.671875 -9.070312 9.492188 -9.457031 9.140625 -9.71875 C 8.796875 -9.976562 8.34375 -10.109375 7.78125 -10.109375 C 7.28125 -10.109375 6.84375 -10.019531 6.46875 -9.84375 C 6.101562 -9.664062 5.921875 -9.378906 5.921875 -8.984375 L 5.921875 -8.890625 L 1.125 -8.890625 C 1.113281 -8.972656 1.109375 -9.085938 1.109375 -9.234375 C 1.109375 -10.453125 1.691406 -11.421875 2.859375 -12.140625 C 4.023438 -12.859375 5.691406 -13.21875 7.859375 -13.21875 Z M 9.671875 -5.625 C 8.285156 -5.625 7.257812 -5.472656 6.59375 -5.171875 C 5.9375 -4.867188 5.609375 -4.46875 5.609375 -3.96875 C 5.609375 -3.15625 6.160156 -2.75 7.265625 -2.75 C 7.910156 -2.75 8.472656 -2.914062 8.953125 -3.25 C 9.429688 -3.59375 9.671875 -4.019531 9.671875 -4.53125 Z M 9.671875 -5.625 "/></g></g></g><g fill="#ffffff" fill-opacity="1"><g transform="translate(93.182788, 22.439809)"><g><path d="M 1.640625 0 L 1.640625 -17.75 L 6.515625 -17.75 L 6.515625 0 Z M 1.640625 0 "/></g></g></g><g fill="#ffffff" fill-opacity="1"><g transform="translate(19.681902, 51.741944)"><g><path d="M 9.84375 -17.140625 C 12.34375 -17.140625 14.316406 -16.515625 15.765625 -15.265625 C 17.222656 -14.015625 17.953125 -12.234375 17.953125 -9.921875 L 12.78125 -9.921875 C 12.78125 -10.898438 12.519531 -11.671875 12 -12.234375 C 11.488281 -12.804688 10.757812 -13.09375 9.8125 -13.09375 C 8.71875 -13.09375 7.914062 -12.75 7.40625 -12.0625 C 6.894531 -11.382812 6.640625 -10.429688 6.640625 -9.203125 L 6.640625 -7.640625 C 6.640625 -6.429688 6.894531 -5.476562 7.40625 -4.78125 C 7.914062 -4.09375 8.703125 -3.75 9.765625 -3.75 C 10.816406 -3.75 11.609375 -4.015625 12.140625 -4.546875 C 12.679688 -5.085938 12.953125 -5.847656 12.953125 -6.828125 L 17.953125 -6.828125 C 17.953125 -4.523438 17.242188 -2.757812 15.828125 -1.53125 C 14.421875 -0.3125 12.425781 0.296875 9.84375 0.296875 C 6.96875 0.296875 4.789062 -0.4375 3.3125 -1.90625 C 1.84375 -3.375 1.109375 -5.546875 1.109375 -8.421875 C 1.109375 -11.296875 1.84375 -13.46875 3.3125 -14.9375 C 4.789062 -16.40625 6.96875 -17.140625 9.84375 -17.140625 Z M 9.84375 -17.140625 "/></g></g></g><g fill="#ffffff" fill-opacity="1"><g transform="translate(38.73616, 51.741944)"><g><path d="M 7.859375 -13.21875 C 9.835938 -13.21875 11.445312 -12.882812 12.6875 -12.21875 C 13.925781 -11.5625 14.546875 -10.492188 14.546875 -9.015625 L 14.546875 -3.96875 C 14.546875 -3.6875 14.609375 -3.457031 14.734375 -3.28125 C 14.867188 -3.101562 15.066406 -3.015625 15.328125 -3.015625 L 16.203125 -3.015625 L 16.203125 -0.203125 C 16.160156 -0.160156 16.035156 -0.101562 15.828125 -0.03125 C 15.617188 0.0390625 15.328125 0.113281 14.953125 0.1875 C 14.578125 0.257812 14.144531 0.296875 13.65625 0.296875 C 12.71875 0.296875 11.941406 0.15625 11.328125 -0.125 C 10.710938 -0.414062 10.289062 -0.816406 10.0625 -1.328125 C 9.4375 -0.835938 8.738281 -0.441406 7.96875 -0.140625 C 7.207031 0.148438 6.3125 0.296875 5.28125 0.296875 C 2.25 0.296875 0.734375 -0.910156 0.734375 -3.328125 C 0.734375 -4.585938 1.070312 -5.546875 1.75 -6.203125 C 2.425781 -6.867188 3.398438 -7.320312 4.671875 -7.5625 C 5.953125 -7.8125 7.617188 -7.9375 9.671875 -7.9375 L 9.671875 -8.5625 C 9.671875 -9.070312 9.492188 -9.457031 9.140625 -9.71875 C 8.796875 -9.976562 8.34375 -10.109375 7.78125 -10.109375 C 7.28125 -10.109375 6.84375 -10.019531 6.46875 -9.84375 C 6.101562 -9.664062 5.921875 -9.378906 5.921875 -8.984375 L 5.921875 -8.890625 L 1.125 -8.890625 C 1.113281 -8.972656 1.109375 -9.085938 1.109375 -9.234375 C 1.109375 -10.453125 1.691406 -11.421875 2.859375 -12.140625 C 4.023438 -12.859375 5.691406 -13.21875 7.859375 -13.21875 Z M 9.671875 -5.625 C 8.285156 -5.625 7.257812 -5.472656 6.59375 -5.171875 C 5.9375 -4.867188 5.609375 -4.46875 5.609375 -3.96875 C 5.609375 -3.15625 6.160156 -2.75 7.265625 -2.75 C 7.910156 -2.75 8.472656 -2.914062 8.953125 -3.25 C 9.429688 -3.59375 9.671875 -4.019531 9.671875 -4.53125 Z M 9.671875 -5.625 "/></g></g></g><g fill="#ffffff" fill-opacity="1"><g transform="translate(55.071877, 51.741944)"><g><path d="M 9.328125 -13.25 C 9.703125 -13.25 10.035156 -13.203125 10.328125 -13.109375 C 10.617188 -13.023438 10.765625 -12.972656 10.765625 -12.953125 L 10.765625 -8.859375 L 9.203125 -8.859375 C 8.191406 -8.859375 7.460938 -8.597656 7.015625 -8.078125 C 6.566406 -7.554688 6.34375 -6.78125 6.34375 -5.75 L 6.34375 0 L 1.46875 0 L 1.46875 -12.921875 L 5.453125 -12.921875 L 5.78125 -10.96875 C 6.070312 -11.71875 6.535156 -12.285156 7.171875 -12.671875 C 7.804688 -13.054688 8.523438 -13.25 9.328125 -13.25 Z M 9.328125 -13.25 "/></g></g></g><g fill="#ffffff" fill-opacity="1"><g transform="translate(65.94603, 51.741944)"><g><path d="M 8.15625 -13.21875 C 10.519531 -13.21875 12.328125 -12.660156 13.578125 -11.546875 C 14.828125 -10.441406 15.453125 -8.75 15.453125 -6.46875 L 15.453125 -5.625 L 5.75 -5.625 C 5.75 -4.695312 5.957031 -3.992188 6.375 -3.515625 C 6.789062 -3.046875 7.445312 -2.8125 8.34375 -2.8125 C 9.164062 -2.8125 9.765625 -2.984375 10.140625 -3.328125 C 10.523438 -3.671875 10.71875 -4.128906 10.71875 -4.703125 L 15.453125 -4.703125 C 15.453125 -3.128906 14.851562 -1.898438 13.65625 -1.015625 C 12.46875 -0.140625 10.734375 0.296875 8.453125 0.296875 C 6.046875 0.296875 4.179688 -0.257812 2.859375 -1.375 C 1.535156 -2.5 0.875 -4.195312 0.875 -6.46875 C 0.875 -8.6875 1.519531 -10.363281 2.8125 -11.5 C 4.101562 -12.644531 5.882812 -13.21875 8.15625 -13.21875 Z M 8.34375 -10.109375 C 6.8125 -10.109375 5.957031 -9.382812 5.78125 -7.9375 L 10.53125 -7.9375 C 10.53125 -8.601562 10.335938 -9.128906 9.953125 -9.515625 C 9.566406 -9.910156 9.03125 -10.109375 8.34375 -10.109375 Z M 8.34375 -10.109375 "/></g></g></g></g></g></svg>